<svg xmlns="http://www.w3.org/2000/svg" width="117" height="117" viewBox="0 0 117 117" fill="none"><g clip-path="url(#clip0_1491_104)"><path d="M45.3367 4.38672C35.2157 4.38672 25.8445 10.093 18.9632 15.684C12.0819 21.2749 7.62881 26.8755 7.62881 26.8755L6.40625 28.4151L8.23152 29.1435C8.23152 29.1435 9.72763 29.7296 11.3479 31.5115C12.9682 33.2935 14.6242 36.1771 14.6242 40.9492C14.6242 46.8339 15.6387 51.225 16.1639 53.1148C14.4133 53.8998 13.1617 55.6093 13.1617 57.6223C13.1617 58.7494 13.5202 59.8344 13.8302 60.8901C13.9851 61.4179 14.1367 61.9146 14.2415 62.3012C14.3462 62.6877 14.3786 63.0466 14.3786 62.8867C14.3786 65.326 16.4482 67.2742 18.8889 67.2742H19.0117V67.3513C19.0117 80.9076 28.7566 92.1745 41.6205 94.6076C43.0466 95.752 44.8155 96.5242 46.7992 96.5242C48.7709 96.5242 50.5273 95.7569 51.9494 94.6247C52.1864 94.5803 52.414 94.511 52.6492 94.4619V116.999H116.999V76.0492H112.612V70.1992H74.4239C74.5199 69.2611 74.5867 68.3142 74.5867 67.3513V67.2742H74.7067C77.1482 67.2742 79.217 65.3251 79.217 62.8867C79.217 63.0466 79.2522 62.6877 79.357 62.3012C79.4618 61.9146 79.6134 61.4179 79.7683 60.8901C80.0782 59.8344 80.4339 58.7494 80.4339 57.6223C80.4353 55.7289 79.324 54.1127 77.7374 53.2719C78.36 50.5381 80.4367 40.9706 80.4367 34.4022C80.4367 20.0053 71.2135 13.8228 63.8094 13.3502C63.3938 12.6027 62.4041 10.9816 60.0903 9.10271C57.1575 6.72128 52.3975 4.38672 45.3367 4.38672ZM45.3367 7.31172C51.7632 7.31172 55.7774 9.36466 58.2479 11.3707C60.7183 13.3768 61.5585 15.2384 61.5585 15.2384L61.9527 16.0867H62.8867C68.8448 16.0867 77.5117 20.6916 77.5117 34.4022C77.5117 40.4228 75.4041 50.2658 74.8524 52.7492C74.7645 52.7787 74.6786 52.8121 74.5867 52.8263V47.5305C74.5867 40.2242 71.6636 35.696 68.6996 33.1597C65.7357 30.6234 62.6725 29.969 62.6725 29.969L61.8299 29.7919L61.2643 30.4432C61.2643 30.4432 59.8093 32.1561 56.4426 33.9881C53.0759 35.8201 47.8923 37.6814 40.6065 37.6814C37.0311 37.6814 31.8244 38.3319 27.3154 40.715C23.1365 42.9236 19.7056 46.9314 19.206 52.872C19.1797 52.867 19.1548 52.8555 19.1289 52.8492C18.8632 52.0368 17.5492 47.7118 17.5492 40.9492C17.5492 35.4809 15.5491 31.7826 13.5131 29.5434C12.625 28.5668 11.7622 27.951 11.0166 27.4525C12.2519 25.9818 15.4135 22.3329 20.8056 17.952C27.4246 12.5742 36.3341 7.31172 45.3367 7.31172ZM62.8867 19.0117C62.4989 19.0117 62.1269 19.1658 61.8526 19.4401C61.5783 19.7143 61.4242 20.0863 61.4242 20.4742C61.4242 20.8621 61.5783 21.2341 61.8526 21.5084C62.1269 21.7826 62.4989 21.9367 62.8867 21.9367C63.2746 21.9367 63.6466 21.7826 63.9209 21.5084C64.1952 21.2341 64.3492 20.8621 64.3492 20.4742C64.3492 20.0863 64.1952 19.7143 63.9209 19.4401C63.6466 19.1658 63.2746 19.0117 62.8867 19.0117ZM62.8867 24.8617C62.4989 24.8617 62.1269 25.0158 61.8526 25.2901C61.5783 25.5643 61.4242 25.9363 61.4242 26.3242C61.4242 26.7121 61.5783 27.0841 61.8526 27.3584C62.1269 27.6326 62.4989 27.7867 62.8867 27.7867C63.2746 27.7867 63.6466 27.6326 63.9209 27.3584C64.1952 27.0841 64.3492 26.7121 64.3492 26.3242C64.3492 25.9363 64.1952 25.5643 63.9209 25.2901C63.6466 25.0158 63.2746 24.8617 62.8867 24.8617ZM62.7325 33.0597C63.4587 33.2743 64.9345 33.7881 66.7972 35.382C69.2101 37.4468 71.6617 40.981 71.6617 47.5305V56.8311L73.6698 56.0227C74.3941 55.7309 75.0776 55.5742 75.318 55.5742C76.5787 55.5742 77.5097 56.5056 77.5089 57.6194V57.6223C77.5089 57.9095 77.2597 59.0482 76.9604 60.0674C76.8108 60.577 76.6556 61.0794 76.532 61.5356C76.4083 61.9918 76.292 62.3188 76.292 62.8867C76.292 63.6804 75.6319 64.3492 74.7067 64.3492H71.6617V67.3513C71.6617 68.3175 71.5886 69.2631 71.4818 70.1992H57.0367V76.0492H52.6492V77.5117V91.4626C52.1631 91.5802 51.6835 91.7142 51.1867 91.8025L50.7726 91.8768L50.4612 92.1596C49.4771 93.0537 48.2131 93.5992 46.7992 93.5992C45.3854 93.5992 44.1214 93.0537 43.1373 92.1596L42.8259 91.8768L42.4117 91.8025C30.7768 89.728 21.9367 79.5986 21.9367 67.3513V64.3492H18.8889C17.9658 64.3492 17.3036 63.6796 17.3036 62.8867C17.3036 62.3188 17.1873 61.9918 17.0636 61.5356C16.94 61.0794 16.7876 60.577 16.638 60.0674C16.3388 59.0482 16.0867 57.9095 16.0867 57.6223C16.0867 56.5079 17.0197 55.5742 18.2805 55.5742C18.5209 55.5742 19.2044 55.7309 19.9287 56.0227L21.9367 56.8311V54.226C21.9367 48.5135 24.8206 45.3447 28.6837 43.3029C32.5468 41.2612 37.4075 40.6064 40.6065 40.6064C48.3932 40.6064 54.0918 38.5953 57.8394 36.556C60.5994 35.0541 62.0005 33.7815 62.7325 33.0597ZM35.0992 55.5742C34.3235 55.5742 33.5795 55.8824 33.031 56.4309C32.4824 56.9795 32.1742 57.7235 32.1742 58.4992C32.1742 59.275 32.4824 60.019 33.031 60.5675C33.5795 61.1161 34.3235 61.4242 35.0992 61.4242C35.875 61.4242 36.619 61.1161 37.1675 60.5675C37.7161 60.019 38.0242 59.275 38.0242 58.4992C38.0242 57.7235 37.7161 56.9795 37.1675 56.4309C36.619 55.8824 35.875 55.5742 35.0992 55.5742ZM58.4992 55.5742C57.7235 55.5742 56.9795 55.8824 56.431 56.4309C55.8824 56.9795 55.5742 57.7235 55.5742 58.4992C55.5742 59.275 55.8824 60.019 56.431 60.5675C56.9795 61.1161 57.7235 61.4242 58.4992 61.4242C59.275 61.4242 60.019 61.1161 60.5675 60.5675C61.1161 60.019 61.4242 59.275 61.4242 58.4992C61.4242 57.7235 61.1161 56.9795 60.5675 56.4309C60.019 55.8824 59.275 55.5742 58.4992 55.5742ZM59.9617 73.1242H109.687V76.0492H59.9617V73.1242ZM55.5742 78.9742H114.074V114.074H55.5742V78.9742ZM64.3492 81.8992C63.9614 81.8992 63.5894 82.0533 63.3151 82.3276C63.0408 82.6019 62.8867 82.9738 62.8867 83.3617C62.8867 83.7496 63.0408 84.1216 63.3151 84.3959C63.5894 84.6701 63.9614 84.8242 64.3492 84.8242C64.7371 84.8242 65.1091 84.6701 65.3834 84.3959C65.6577 84.1216 65.8117 83.7496 65.8117 83.3617C65.8117 82.9738 65.6577 82.6019 65.3834 82.3276C65.1091 82.0533 64.7371 81.8992 64.3492 81.8992ZM70.1992 81.8992C69.8114 81.8992 69.4394 82.0533 69.1651 82.3276C68.8908 82.6019 68.7367 82.9738 68.7367 83.3617C68.7367 83.7496 68.8908 84.1216 69.1651 84.3959C69.4394 84.6701 69.8114 84.8242 70.1992 84.8242C70.5871 84.8242 70.9591 84.6701 71.2334 84.3959C71.5077 84.1216 71.6617 83.7496 71.6617 83.3617C71.6617 82.9738 71.5077 82.6019 71.2334 82.3276C70.9591 82.0533 70.5871 81.8992 70.1992 81.8992ZM76.0492 81.8992C75.6614 81.8992 75.2894 82.0533 75.0151 82.3276C74.7408 82.6019 74.5867 82.9738 74.5867 83.3617C74.5867 83.7496 74.7408 84.1216 75.0151 84.3959C75.2894 84.6701 75.6614 84.8242 76.0492 84.8242C76.4371 84.8242 76.8091 84.6701 77.0834 84.3959C77.3577 84.1216 77.5117 83.7496 77.5117 83.3617C77.5117 82.9738 77.3577 82.6019 77.0834 82.3276C76.8091 82.0533 76.4371 81.8992 76.0492 81.8992ZM81.8992 81.8992C81.5114 81.8992 81.1394 82.0533 80.8651 82.3276C80.5908 82.6019 80.4367 82.9738 80.4367 83.3617C80.4367 83.7496 80.5908 84.1216 80.8651 84.3959C81.1394 84.6701 81.5114 84.8242 81.8992 84.8242C82.2871 84.8242 82.6591 84.6701 82.9334 84.3959C83.2077 84.1216 83.3617 83.7496 83.3617 83.3617C83.3617 82.9738 83.2077 82.6019 82.9334 82.3276C82.6591 82.0533 82.2871 81.8992 81.8992 81.8992ZM87.7492 81.8992C87.3614 81.8992 86.9894 82.0533 86.7151 82.3276C86.4408 82.6019 86.2867 82.9738 86.2867 83.3617C86.2867 83.7496 86.4408 84.1216 86.7151 84.3959C86.9894 84.6701 87.3614 84.8242 87.7492 84.8242C88.1371 84.8242 88.5091 84.6701 88.7834 84.3959C89.0577 84.1216 89.2117 83.7496 89.2117 83.3617C89.2117 82.9738 89.0577 82.6019 88.7834 82.3276C88.5091 82.0533 88.1371 81.8992 87.7492 81.8992ZM93.5992 81.8992C93.2114 81.8992 92.8394 82.0533 92.5651 82.3276C92.2908 82.6019 92.1367 82.9738 92.1367 83.3617C92.1367 83.7496 92.2908 84.1216 92.5651 84.3959C92.8394 84.6701 93.2114 84.8242 93.5992 84.8242C93.9871 84.8242 94.3591 84.6701 94.6334 84.3959C94.9077 84.1216 95.0617 83.7496 95.0617 83.3617C95.0617 82.9738 94.9077 82.6019 94.6334 82.3276C94.3591 82.0533 93.9871 81.8992 93.5992 81.8992ZM99.4492 81.8992C99.0614 81.8992 98.6894 82.0533 98.4151 82.3276C98.1408 82.6019 97.9867 82.9738 97.9867 83.3617C97.9867 83.7496 98.1408 84.1216 98.4151 84.3959C98.6894 84.6701 99.0614 84.8242 99.4492 84.8242C99.8371 84.8242 100.209 84.6701 100.483 84.3959C100.758 84.1216 100.912 83.7496 100.912 83.3617C100.912 82.9738 100.758 82.6019 100.483 82.3276C100.209 82.0533 99.8371 81.8992 99.4492 81.8992ZM105.299 81.8992C104.911 81.8992 104.539 82.0533 104.265 82.3276C103.991 82.6019 103.837 82.9738 103.837 83.3617C103.837 83.7496 103.991 84.1216 104.265 84.3959C104.539 84.6701 104.911 84.8242 105.299 84.8242C105.687 84.8242 106.059 84.6701 106.333 84.3959C106.608 84.1216 106.762 83.7496 106.762 83.3617C106.762 82.9738 106.608 82.6019 106.333 82.3276C106.059 82.0533 105.687 81.8992 105.299 81.8992ZM59.9617 86.2867C59.5739 86.2867 59.2019 86.4408 58.9276 86.7151C58.6533 86.9893 58.4992 87.3613 58.4992 87.7492C58.4992 88.1371 58.6533 88.5091 58.9276 88.7834C59.2019 89.0576 59.5739 89.2117 59.9617 89.2117C60.3496 89.2117 60.7216 89.0576 60.9959 88.7834C61.2702 88.5091 61.4242 88.1371 61.4242 87.7492C61.4242 87.3613 61.2702 86.9893 60.9959 86.7151C60.7216 86.4408 60.3496 86.2867 59.9617 86.2867ZM109.687 86.2867C109.299 86.2867 108.927 86.4408 108.653 86.7151C108.378 86.9893 108.224 87.3613 108.224 87.7492C108.224 88.1371 108.378 88.5091 108.653 88.7834C108.927 89.0576 109.299 89.2117 109.687 89.2117C110.075 89.2117 110.447 89.0576 110.721 88.7834C110.995 88.5091 111.149 88.1371 111.149 87.7492C111.149 87.3613 110.995 86.9893 110.721 86.7151C110.447 86.4408 110.075 86.2867 109.687 86.2867ZM84.8242 89.2117C80.803 89.2117 77.5117 92.503 77.5117 96.5242C77.5117 100.545 80.803 103.837 84.8242 103.837C88.8455 103.837 92.1367 100.545 92.1367 96.5242C92.1367 92.503 88.8455 89.2117 84.8242 89.2117ZM59.9617 92.1367C59.5739 92.1367 59.2019 92.2908 58.9276 92.5651C58.6533 92.8394 58.4992 93.2113 58.4992 93.5992C58.4992 93.9871 58.6533 94.3591 58.9276 94.6334C59.2019 94.9076 59.5739 95.0617 59.9617 95.0617C60.3496 95.0617 60.7216 94.9076 60.9959 94.6334C61.2702 94.3591 61.4242 93.9871 61.4242 93.5992C61.4242 93.2113 61.2702 92.8394 60.9959 92.5651C60.7216 92.2908 60.3496 92.1367 59.9617 92.1367ZM84.8242 92.1367C87.2647 92.1367 89.2117 94.0838 89.2117 96.5242C89.2117 98.9647 87.2647 100.912 84.8242 100.912C82.3838 100.912 80.4367 98.9647 80.4367 96.5242C80.4367 94.0838 82.3838 92.1367 84.8242 92.1367ZM109.687 92.1367C109.299 92.1367 108.927 92.2908 108.653 92.5651C108.378 92.8394 108.224 93.2113 108.224 93.5992C108.224 93.9871 108.378 94.3591 108.653 94.6334C108.927 94.9076 109.299 95.0617 109.687 95.0617C110.075 95.0617 110.447 94.9076 110.721 94.6334C110.995 94.3591 111.149 93.9871 111.149 93.5992C111.149 93.2113 110.995 92.8394 110.721 92.5651C110.447 92.2908 110.075 92.1367 109.687 92.1367ZM68.7367 93.5992C67.961 93.5992 67.217 93.9074 66.6685 94.4559C66.1199 95.0045 65.8117 95.7485 65.8117 96.5242C65.8117 97.3 66.1199 98.044 66.6685 98.5925C67.217 99.1411 67.961 99.4492 68.7367 99.4492C69.5125 99.4492 70.2565 99.1411 70.805 98.5925C71.3536 98.044 71.6617 97.3 71.6617 96.5242C71.6617 95.7485 71.3536 95.0045 70.805 94.4559C70.2565 93.9074 69.5125 93.5992 68.7367 93.5992ZM100.912 93.5992C100.136 93.5992 99.392 93.9074 98.8435 94.4559C98.2949 95.0045 97.9867 95.7485 97.9867 96.5242C97.9867 97.3 98.2949 98.044 98.8435 98.5925C99.392 99.1411 100.136 99.4492 100.912 99.4492C101.688 99.4492 102.431 99.1411 102.98 98.5925C103.529 98.044 103.837 97.3 103.837 96.5242C103.837 95.7485 103.529 95.0045 102.98 94.4559C102.431 93.9074 101.688 93.5992 100.912 93.5992ZM59.9617 97.9867C59.5739 97.9867 59.2019 98.1408 58.9276 98.4151C58.6533 98.6894 58.4992 99.0613 58.4992 99.4492C58.4992 99.8371 58.6533 100.209 58.9276 100.483C59.2019 100.758 59.5739 100.912 59.9617 100.912C60.3496 100.912 60.7216 100.758 60.9959 100.483C61.2702 100.209 61.4242 99.8371 61.4242 99.4492C61.4242 99.0613 61.2702 98.6894 60.9959 98.4151C60.7216 98.1408 60.3496 97.9867 59.9617 97.9867ZM109.687 97.9867C109.299 97.9867 108.927 98.1408 108.653 98.4151C108.378 98.6894 108.224 99.0613 108.224 99.4492C108.224 99.8371 108.378 100.209 108.653 100.483C108.927 100.758 109.299 100.912 109.687 100.912C110.075 100.912 110.447 100.758 110.721 100.483C110.995 100.209 111.149 99.8371 111.149 99.4492C111.149 99.0613 110.995 98.6894 110.721 98.4151C110.447 98.1408 110.075 97.9867 109.687 97.9867ZM59.9617 103.837C59.5739 103.837 59.2019 103.991 58.9276 104.265C58.6533 104.539 58.4992 104.911 58.4992 105.299C58.4992 105.687 58.6533 106.059 58.9276 106.333C59.2019 106.608 59.5739 106.762 59.9617 106.762C60.3496 106.762 60.7216 106.608 60.9959 106.333C61.2702 106.059 61.4242 105.687 61.4242 105.299C61.4242 104.911 61.2702 104.539 60.9959 104.265C60.7216 103.991 60.3496 103.837 59.9617 103.837ZM109.687 103.837C109.299 103.837 108.927 103.991 108.653 104.265C108.378 104.539 108.224 104.911 108.224 105.299C108.224 105.687 108.378 106.059 108.653 106.333C108.927 106.608 109.299 106.762 109.687 106.762C110.075 106.762 110.447 106.608 110.721 106.333C110.995 106.059 111.149 105.687 111.149 105.299C111.149 104.911 110.995 104.539 110.721 104.265C110.447 103.991 110.075 103.837 109.687 103.837ZM64.3492 108.224C63.9614 108.224 63.5894 108.378 63.3151 108.653C63.0408 108.927 62.8867 109.299 62.8867 109.687C62.8867 110.075 63.0408 110.447 63.3151 110.721C63.5894 110.995 63.9614 111.149 64.3492 111.149C64.7371 111.149 65.1091 110.995 65.3834 110.721C65.6577 110.447 65.8117 110.075 65.8117 109.687C65.8117 109.299 65.6577 108.927 65.3834 108.653C65.1091 108.378 64.7371 108.224 64.3492 108.224ZM70.1992 108.224C69.8114 108.224 69.4394 108.378 69.1651 108.653C68.8908 108.927 68.7367 109.299 68.7367 109.687C68.7367 110.075 68.8908 110.447 69.1651 110.721C69.4394 110.995 69.8114 111.149 70.1992 111.149C70.5871 111.149 70.9591 110.995 71.2334 110.721C71.5077 110.447 71.6617 110.075 71.6617 109.687C71.6617 109.299 71.5077 108.927 71.2334 108.653C70.9591 108.378 70.5871 108.224 70.1992 108.224ZM76.0492 108.224C75.6614 108.224 75.2894 108.378 75.0151 108.653C74.7408 108.927 74.5867 109.299 74.5867 109.687C74.5867 110.075 74.7408 110.447 75.0151 110.721C75.2894 110.995 75.6614 111.149 76.0492 111.149C76.4371 111.149 76.8091 110.995 77.0834 110.721C77.3577 110.447 77.5117 110.075 77.5117 109.687C77.5117 109.299 77.3577 108.927 77.0834 108.653C76.8091 108.378 76.4371 108.224 76.0492 108.224ZM81.8992 108.224C81.5114 108.224 81.1394 108.378 80.8651 108.653C80.5908 108.927 80.4367 109.299 80.4367 109.687C80.4367 110.075 80.5908 110.447 80.8651 110.721C81.1394 110.995 81.5114 111.149 81.8992 111.149C82.2871 111.149 82.6591 110.995 82.9334 110.721C83.2077 110.447 83.3617 110.075 83.3617 109.687C83.3617 109.299 83.2077 108.927 82.9334 108.653C82.6591 108.378 82.2871 108.224 81.8992 108.224ZM87.7492 108.224C87.3614 108.224 86.9894 108.378 86.7151 108.653C86.4408 108.927 86.2867 109.299 86.2867 109.687C86.2867 110.075 86.4408 110.447 86.7151 110.721C86.9894 110.995 87.3614 111.149 87.7492 111.149C88.1371 111.149 88.5091 110.995 88.7834 110.721C89.0577 110.447 89.2117 110.075 89.2117 109.687C89.2117 109.299 89.0577 108.927 88.7834 108.653C88.5091 108.378 88.1371 108.224 87.7492 108.224ZM93.5992 108.224C93.2114 108.224 92.8394 108.378 92.5651 108.653C92.2908 108.927 92.1367 109.299 92.1367 109.687C92.1367 110.075 92.2908 110.447 92.5651 110.721C92.8394 110.995 93.2114 111.149 93.5992 111.149C93.9871 111.149 94.3591 110.995 94.6334 110.721C94.9077 110.447 95.0617 110.075 95.0617 109.687C95.0617 109.299 94.9077 108.927 94.6334 108.653C94.3591 108.378 93.9871 108.224 93.5992 108.224ZM99.4492 108.224C99.0614 108.224 98.6894 108.378 98.4151 108.653C98.1408 108.927 97.9867 109.299 97.9867 109.687C97.9867 110.075 98.1408 110.447 98.4151 110.721C98.6894 110.995 99.0614 111.149 99.4492 111.149C99.8371 111.149 100.209 110.995 100.483 110.721C100.758 110.447 100.912 110.075 100.912 109.687C100.912 109.299 100.758 108.927 100.483 108.653C100.209 108.378 99.8371 108.224 99.4492 108.224ZM105.299 108.224C104.911 108.224 104.539 108.378 104.265 108.653C103.991 108.927 103.837 109.299 103.837 109.687C103.837 110.075 103.991 110.447 104.265 110.721C104.539 110.995 104.911 111.149 105.299 111.149C105.687 111.149 106.059 110.995 106.333 110.721C106.608 110.447 106.762 110.075 106.762 109.687C106.762 109.299 106.608 108.927 106.333 108.653C106.059 108.378 105.687 108.224 105.299 108.224Z" fill="#EDB200"></path></g><defs><clipPath><rect width="117" height="117" fill="white"></rect></clipPath></defs></svg>