<svg xmlns="http://www.w3.org/2000/svg" width="97" height="96" viewBox="0 0 97 96" fill="none"><g clip-path="url(#clip0_1430_631)"><path d="M91.0098 23.1285C91.0098 10.1602 72.4494 0 48.7549 0C25.0604 0 6.5 10.1602 6.5 23.1285V43.5309C6.5 48.327 9.09206 52.9071 13.9962 56.7712C14.2642 56.9812 14.5802 57.0832 14.8962 57.0832C15.3262 57.0832 15.7522 56.8932 16.0382 56.5292C16.5362 55.8992 16.4262 54.9831 15.7962 54.4871C11.6181 51.1931 9.40808 47.403 9.40808 43.5309V31.6387C10.0741 32.5747 10.8441 33.4847 11.7261 34.3627C19.1083 41.7009 33.2966 46.261 48.7529 46.261C49.5929 46.261 50.4649 46.295 51.3589 46.349C52.447 48.775 53.107 51.7751 53.107 54.9891C53.107 58.2912 52.411 61.3713 51.271 63.8313C50.4089 63.7813 49.5669 63.7533 48.7529 63.7533C39.2627 63.7533 30.0825 61.9613 22.9003 58.7112C22.1683 58.3792 21.3063 58.7032 20.9763 59.4352C20.6443 60.1673 20.9703 61.0293 21.7003 61.3593C25.8544 63.2413 30.6445 64.6374 35.7486 65.5294C37.5727 69.1735 40.2767 71.5435 43.2628 72.1255V76.7856C43.2628 77.5876 43.9148 78.2396 44.7168 78.2396C48.8109 78.2396 52.143 81.5717 52.143 85.6658C52.143 89.7599 48.8109 93.0919 44.7168 93.0919C40.6227 93.0919 37.2907 89.7599 37.2907 85.6658C37.2907 83.4377 38.2787 81.3457 40.0027 79.9277C40.6247 79.4177 40.7127 78.5016 40.2047 77.8816C39.6947 77.2596 38.7767 77.1696 38.1567 77.6796C35.7586 79.6517 34.3826 82.5617 34.3826 85.6658C34.3826 91.3639 39.0187 96 44.7168 96C50.4169 96 55.051 91.3639 55.051 85.6658C55.051 80.4657 51.177 76.1936 46.1708 75.4776V72.1215C48.8609 71.6135 51.221 69.7054 52.961 66.8854C65.4893 68.0534 81.8536 73.9015 88.6998 78.8436C88.9578 79.0297 89.2557 79.1197 89.5497 79.1197C90.0038 79.1197 90.4478 78.9116 90.7318 78.5156C91.2018 77.8636 91.0538 76.9556 90.4058 76.4856C83.4716 71.4815 67.2313 65.5794 54.363 64.1053C55.413 61.4753 56.0171 58.3592 56.0171 54.9871C56.0171 51.9511 55.529 49.121 54.665 46.665C66.5713 48.127 81.2616 53.3871 88.0997 58.0092V69.9055C88.0997 70.7075 88.7498 71.3595 89.5538 71.3595C90.3578 71.3595 91.0098 70.7075 91.0098 69.9055V57.2512C91.0098 56.7832 90.7858 56.3432 90.4058 56.0712C89.3678 55.3232 88.1157 54.5571 86.7057 53.7851C89.5238 50.6271 91.0078 47.115 91.0078 43.5289V23.1285H91.0098ZM44.7188 69.3655C42.8048 69.3655 40.9307 68.1714 39.4347 66.0774C42.4768 66.4494 45.5968 66.6614 48.7549 66.6614C49.0009 66.6614 49.2649 66.6814 49.5169 66.6854C48.1449 68.3614 46.4869 69.3655 44.7188 69.3655ZM48.7549 43.3509C45.8608 43.3509 43.0208 43.1829 40.2687 42.8669C41.6047 41.4049 43.1368 40.6129 44.7188 40.6129C46.5149 40.6129 48.1949 41.6509 49.5769 43.3709C49.3049 43.3669 49.0209 43.3509 48.7549 43.3509ZM17.8162 29.3726C18.2103 30.0726 19.0963 30.3206 19.7983 29.9246C27.2624 25.7225 37.8187 23.3105 48.7549 23.3105C62.7132 23.3105 75.4734 27.1226 82.6096 33.3307C79.3815 36.1307 74.9134 38.5088 69.5633 40.2488C68.7973 40.4968 68.3813 41.3169 68.6293 42.0829C68.8293 42.6969 69.3993 43.0869 70.0113 43.0869C70.1613 43.0869 70.3113 43.0649 70.4613 43.0149C76.8935 40.9249 82.1896 37.9328 85.7837 34.3607C86.6657 33.4847 87.4357 32.5727 88.1017 31.6387V43.5309C88.1017 46.591 86.6757 49.643 84.0036 52.4111C75.5854 48.361 63.2652 44.5469 53.265 43.5849C51.2069 39.9648 48.1709 37.7008 44.7188 37.7008C41.7628 37.7008 39.0387 39.3708 36.9507 42.3989C27.1264 40.7949 18.7383 37.2268 13.7802 32.2967C10.8801 29.4146 9.41006 26.3285 9.41006 23.1265C9.41006 11.9762 27.0604 2.90606 48.7549 2.90606C70.4493 2.90606 88.1017 11.9762 88.1017 23.1265C88.1017 25.9545 86.9557 28.6906 84.6917 31.2767C77.0575 24.5385 63.4812 20.4004 48.7549 20.4004C37.1646 20.4004 26.3744 22.8825 18.3702 27.3886C17.6702 27.7866 17.4222 28.6706 17.8162 29.3726Z" fill="#EDB200"></path><path d="M81.1611 64.5429C81.9652 64.5429 82.6171 63.891 82.6171 63.0869C82.6171 62.2828 81.9652 61.6309 81.1611 61.6309C80.357 61.6309 79.7051 62.2828 79.7051 63.0869C79.7051 63.891 80.357 64.5429 81.1611 64.5429Z" fill="#EDB200"></path><path d="M72.2529 60.8436C73.0559 60.8436 73.7069 60.1926 73.7069 59.3896C73.7069 58.5865 73.0559 57.9355 72.2529 57.9355C71.4499 57.9355 70.7988 58.5865 70.7988 59.3896C70.7988 60.1926 71.4499 60.8436 72.2529 60.8436Z" fill="#EDB200"></path><path d="M63.0986 58.5429C63.9027 58.5429 64.5546 57.891 64.5546 57.0869C64.5546 56.2828 63.9027 55.6309 63.0986 55.6309C62.2945 55.6309 61.6426 56.2828 61.6426 57.0869C61.6426 57.891 62.2945 58.5429 63.0986 58.5429Z" fill="#EDB200"></path><path d="M48.7567 16.9885C49.5588 16.9885 50.2108 16.3365 50.2108 15.5345V7.77634C50.2108 6.97433 49.5588 6.32031 48.7567 6.32031C47.9547 6.32031 47.3027 6.97233 47.3027 7.77634V15.5345C47.3027 16.3365 47.9527 16.9885 48.7567 16.9885Z" fill="#EDB200"></path><path d="M33.2392 18.9299C34.0412 18.9299 34.6933 18.2779 34.6933 17.4759V9.71775C34.6933 8.91373 34.0412 8.26172 33.2392 8.26172C32.4352 8.26172 31.7832 8.91373 31.7832 9.71775V17.4759C31.7832 18.2799 32.4352 18.9299 33.2392 18.9299Z" fill="#EDB200"></path><path d="M64.2705 18.9299C65.0725 18.9299 65.7265 18.2779 65.7265 17.4759V9.71775C65.7265 8.91373 65.0745 8.26172 64.2705 8.26172C63.4665 8.26172 62.8145 8.91373 62.8145 9.71775V17.4759C62.8165 18.2799 63.4685 18.9299 64.2705 18.9299Z" fill="#EDB200"></path><path d="M19.661 24.0198C20.4631 24.0198 21.1171 23.3678 21.1171 22.5658V14.8076C21.1171 14.0036 20.4651 13.3516 19.661 13.3516C18.857 13.3516 18.207 14.0036 18.207 14.8076V22.5658C18.207 23.3678 18.857 24.0198 19.661 24.0198Z" fill="#EDB200"></path><path d="M79.788 24.0198C80.592 24.0198 81.2441 23.3678 81.2441 22.5658V14.8076C81.2441 14.0036 80.594 13.3516 79.788 13.3516C78.986 13.3516 78.334 14.0036 78.334 14.8076V22.5658C78.336 23.3678 78.986 24.0198 79.788 24.0198Z" fill="#EDB200"></path></g><defs><clipPath><rect width="96" height="96" fill="white" transform="translate(0.75)"></rect></clipPath></defs></svg>