<svg xmlns="http://www.w3.org/2000/svg" width="96" height="96" viewBox="0 0 96 96" fill="none"><g clip-path="url(#clip0_1646_48)"><path d="M83.5229 51.2392C93.82 40.2478 92.8258 22.5861 81.3024 11.7906C69.779 0.995065 52.09 1.15385 41.7929 12.1452C31.4959 23.1366 32.49 40.7984 44.0134 51.5939C55.5368 62.3894 73.2258 62.2306 83.5229 51.2392Z" stroke="#EDB200" stroke-width="2" stroke-miterlimit="10" stroke-linecap="round" stroke-linejoin="round"></path><path d="M23.5654 78.9156L31.2904 72.3456C32.2954 71.2656 32.7904 69.9156 32.7754 68.5806C34.0504 68.5506 35.3254 68.0406 36.2554 67.0356L43.4554 57.2106L38.4454 52.5156L29.1004 60.3306C28.1554 61.3356 27.7204 62.6406 27.7804 63.9156C26.4604 63.9906 25.1404 64.5606 24.1204 65.6406L18.0754 73.7706C14.6254 72.5256 10.6054 73.3656 7.93541 76.2156C4.35041 80.0406 4.54541 86.0556 8.37041 89.6406C12.1954 93.2256 18.2104 93.0306 21.7954 89.2056C24.4504 86.3556 25.0204 82.2906 23.5654 78.9156Z" stroke="#EDB200" stroke-width="2" stroke-miterlimit="10" stroke-linecap="round" stroke-linejoin="round"></path><path d="M17.5502 85.7101C16.0352 87.3301 13.4852 87.4201 11.8652 85.8901C10.2452 84.3751 10.1552 81.8251 11.6852 80.2051C13.2002 78.5851 15.7502 78.4951 17.3702 80.0251C18.9902 81.5551 19.0802 84.0901 17.5502 85.7101Z" stroke="#EDB200" stroke-width="2" stroke-miterlimit="10" stroke-linecap="round" stroke-linejoin="round"></path><path d="M86.5045 18.2395C83.4295 21.5245 77.9545 21.9445 74.6845 18.8695C71.3995 15.7945 71.4445 10.3045 74.5195 7.01953" stroke="#EDB200" stroke-width="2" stroke-miterlimit="10" stroke-linecap="round" stroke-linejoin="round"></path><path d="M41.7891 12.1348C41.7891 12.1348 52.7241 42.2848 83.5191 51.2398" stroke="#EDB200" stroke-width="2" stroke-miterlimit="10" stroke-linecap="round" stroke-linejoin="round"></path><path d="M28.3806 17.4453C28.3806 17.4453 25.6956 20.6403 27.0456 25.2903" stroke="#EDB200" stroke-width="1.5" stroke-miterlimit="10" stroke-linecap="round" stroke-linejoin="round"></path><path d="M24.2546 10.4844C24.2546 10.4844 18.7196 18.4794 20.9696 29.7594" stroke="#EDB200" stroke-width="1.5" stroke-miterlimit="10" stroke-linecap="round" stroke-linejoin="round"></path><path d="M68.5957 67.9348C68.5957 67.9348 72.5857 69.1798 76.3507 66.1348" stroke="#EDB200" stroke-width="1.5" stroke-miterlimit="10" stroke-linecap="round" stroke-linejoin="round"></path><path d="M63.7656 74.4159C63.7656 74.4159 73.2756 76.4259 82.8156 70.0059" stroke="#EDB200" stroke-width="1.5" stroke-miterlimit="10" stroke-linecap="round" stroke-linejoin="round"></path></g><defs><clipPath><rect width="96" height="96" fill="white"></rect></clipPath></defs></svg>