<svg xmlns="http://www.w3.org/2000/svg" width="96" height="95" viewBox="0 0 96 95" fill="none"><g clip-path="url(#clip0_1491_325)"><path d="M9.63828 15.0742C6.90365 15.0742 4.68828 17.2896 4.68828 20.0242V67.0492C4.68828 67.9712 5.00855 68.7853 5.44722 69.5242H-0.261719V73.2367C-0.261719 76.6342 2.52828 79.4242 5.92578 79.4242H90.0758C93.4733 79.4242 96.2633 76.6342 96.2633 73.2367V69.5242H90.5543C90.993 68.7853 91.3133 67.9712 91.3133 67.0492V20.0242C91.3133 17.2896 89.0979 15.0742 86.3633 15.0742H9.63828ZM9.63828 17.5492H86.3633C87.8361 17.5492 88.8383 18.5514 88.8383 20.0242V67.0492C88.8383 68.5221 87.8361 69.5242 86.3633 69.5242H55.4258V70.7617C55.4258 71.448 54.8745 71.9992 54.1883 71.9992H41.8133C41.127 71.9992 40.5758 71.448 40.5758 70.7617V69.5242H9.63828C8.16541 69.5242 7.16328 68.5221 7.16328 67.0492V20.0242C7.16328 18.5514 8.16541 17.5492 9.63828 17.5492ZM13.3508 22.4992C12.6083 22.4992 12.1133 22.9942 12.1133 23.7367C12.1133 24.4792 12.6083 24.9742 13.3508 24.9742C14.0933 24.9742 14.5883 24.4792 14.5883 23.7367C14.5883 22.9942 14.0933 22.4992 13.3508 22.4992ZM18.3008 22.4992C17.5583 22.4992 17.0633 22.9942 17.0633 23.7367C17.0633 24.4792 17.5583 24.9742 18.3008 24.9742C19.0433 24.9742 19.5383 24.4792 19.5383 23.7367C19.5383 22.9942 19.0433 22.4992 18.3008 22.4992ZM23.2508 22.4992C22.5083 22.4992 22.0133 22.9942 22.0133 23.7367C22.0133 24.4792 22.5083 24.9742 23.2508 24.9742C23.9933 24.9742 24.4883 24.4792 24.4883 23.7367C24.4883 22.9942 23.9933 22.4992 23.2508 22.4992ZM28.2008 22.4992C27.4583 22.4992 26.9633 22.9942 26.9633 23.7367C26.9633 24.4792 27.4583 24.9742 28.2008 24.9742C28.9433 24.9742 29.4383 24.4792 29.4383 23.7367C29.4383 22.9942 28.9433 22.4992 28.2008 22.4992ZM33.1508 22.4992C32.4083 22.4992 31.9133 22.9942 31.9133 23.7367C31.9133 24.4792 32.4083 24.9742 33.1508 24.9742C33.8933 24.9742 34.3883 24.4792 34.3883 23.7367C34.3883 22.9942 33.8933 22.4992 33.1508 22.4992ZM38.1008 22.4992C37.3583 22.4992 36.8633 22.9942 36.8633 23.7367C36.8633 24.4792 37.3583 24.9742 38.1008 24.9742C38.8433 24.9742 39.3383 24.4792 39.3383 23.7367C39.3383 22.9942 38.8433 22.4992 38.1008 22.4992ZM43.0508 22.4992C42.3083 22.4992 41.8133 22.9942 41.8133 23.7367C41.8133 24.4792 42.3083 24.9742 43.0508 24.9742C43.7933 24.9742 44.2883 24.4792 44.2883 23.7367C44.2883 22.9942 43.7933 22.4992 43.0508 22.4992ZM48.0008 22.4992C47.2583 22.4992 46.7633 22.9942 46.7633 23.7367C46.7633 24.4792 47.2583 24.9742 48.0008 24.9742C48.7433 24.9742 49.2383 24.4792 49.2383 23.7367C49.2383 22.9942 48.7433 22.4992 48.0008 22.4992ZM52.9508 22.4992C52.2083 22.4992 51.7133 22.9942 51.7133 23.7367C51.7133 24.4792 52.2083 24.9742 52.9508 24.9742C53.6933 24.9742 54.1883 24.4792 54.1883 23.7367C54.1883 22.9942 53.6933 22.4992 52.9508 22.4992ZM57.9008 22.4992C57.1583 22.4992 56.6633 22.9942 56.6633 23.7367C56.6633 24.4792 57.1583 24.9742 57.9008 24.9742C58.6433 24.9742 59.1383 24.4792 59.1383 23.7367C59.1383 22.9942 58.6433 22.4992 57.9008 22.4992ZM62.8508 22.4992C62.1083 22.4992 61.6133 22.9942 61.6133 23.7367C61.6133 24.4792 62.1083 24.9742 62.8508 24.9742C63.5933 24.9742 64.0883 24.4792 64.0883 23.7367C64.0883 22.9942 63.5933 22.4992 62.8508 22.4992ZM67.8008 22.4992C67.0583 22.4992 66.5633 22.9942 66.5633 23.7367C66.5633 24.4792 67.0583 24.9742 67.8008 24.9742C68.5433 24.9742 69.0383 24.4792 69.0383 23.7367C69.0383 22.9942 68.5433 22.4992 67.8008 22.4992ZM72.7508 22.4992C72.0083 22.4992 71.5133 22.9942 71.5133 23.7367C71.5133 24.4792 72.0083 24.9742 72.7508 24.9742C73.4933 24.9742 73.9883 24.4792 73.9883 23.7367C73.9883 22.9942 73.4933 22.4992 72.7508 22.4992ZM77.7008 22.4992C76.9583 22.4992 76.4633 22.9942 76.4633 23.7367C76.4633 24.4792 76.9583 24.9742 77.7008 24.9742C78.4433 24.9742 78.9383 24.4792 78.9383 23.7367C78.9383 22.9942 78.4433 22.4992 77.7008 22.4992ZM82.6508 22.4992C81.9083 22.4992 81.4133 22.9942 81.4133 23.7367C81.4133 24.4792 81.9083 24.9742 82.6508 24.9742C83.3933 24.9742 83.8883 24.4792 83.8883 23.7367C83.8883 22.9942 83.3933 22.4992 82.6508 22.4992ZM13.3508 27.4492C12.6083 27.4492 12.1133 27.9442 12.1133 28.6867C12.1133 29.4292 12.6083 29.9242 13.3508 29.9242C14.0933 29.9242 14.5883 29.4292 14.5883 28.6867C14.5883 27.9442 14.0933 27.4492 13.3508 27.4492ZM82.6508 27.4492C81.9083 27.4492 81.4133 27.9442 81.4133 28.6867C81.4133 29.4292 81.9083 29.9242 82.6508 29.9242C83.3933 29.9242 83.8883 29.4292 83.8883 28.6867C83.8883 27.9442 83.3933 27.4492 82.6508 27.4492ZM13.3508 32.3992C12.6083 32.3992 12.1133 32.8942 12.1133 33.6367C12.1133 34.3792 12.6083 34.8742 13.3508 34.8742C14.0933 34.8742 14.5883 34.3792 14.5883 33.6367C14.5883 32.8942 14.0933 32.3992 13.3508 32.3992ZM82.6508 32.3992C81.9083 32.3992 81.4133 32.8942 81.4133 33.6367C81.4133 34.3792 81.9083 34.8742 82.6508 34.8742C83.3933 34.8742 83.8883 34.3792 83.8883 33.6367C83.8883 32.8942 83.3933 32.3992 82.6508 32.3992ZM54.1883 34.8742V53.9322L59.2615 50.343L62.7275 57.1492L65.449 55.7885L61.8598 49.1055L68.173 47.7447L54.1883 34.8742ZM13.3508 37.3492C12.6083 37.3492 12.1133 37.8442 12.1133 38.5867C12.1133 39.3292 12.6083 39.8242 13.3508 39.8242C14.0933 39.8242 14.5883 39.3292 14.5883 38.5867C14.5883 37.8442 14.0933 37.3492 13.3508 37.3492ZM82.6508 37.3492C81.9083 37.3492 81.4133 37.8442 81.4133 38.5867C81.4133 39.3292 81.9083 39.8242 82.6508 39.8242C83.3933 39.8242 83.8883 39.3292 83.8883 38.5867C83.8883 37.8442 83.3933 37.3492 82.6508 37.3492ZM13.3508 42.2992C12.6083 42.2992 12.1133 42.7942 12.1133 43.5367C12.1133 44.2792 12.6083 44.7742 13.3508 44.7742C14.0933 44.7742 14.5883 44.2792 14.5883 43.5367C14.5883 42.7942 14.0933 42.2992 13.3508 42.2992ZM82.6508 42.2992C81.9083 42.2992 81.4133 42.7942 81.4133 43.5367C81.4133 44.2792 81.9083 44.7742 82.6508 44.7742C83.3933 44.7742 83.8883 44.2792 83.8883 43.5367C83.8883 42.7942 83.3933 42.2992 82.6508 42.2992ZM13.3508 47.2492C12.6083 47.2492 12.1133 47.7442 12.1133 48.4867C12.1133 49.2292 12.6083 49.7242 13.3508 49.7242C14.0933 49.7242 14.5883 49.2292 14.5883 48.4867C14.5883 47.7442 14.0933 47.2492 13.3508 47.2492ZM82.6508 47.2492C81.9083 47.2492 81.4133 47.7442 81.4133 48.4867C81.4133 49.2292 81.9083 49.7242 82.6508 49.7242C83.3933 49.7242 83.8883 49.2292 83.8883 48.4867C83.8883 47.7442 83.3933 47.2492 82.6508 47.2492ZM13.3508 52.1992C12.6083 52.1992 12.1133 52.6942 12.1133 53.4367C12.1133 54.1792 12.6083 54.6742 13.3508 54.6742C14.0933 54.6742 14.5883 54.1792 14.5883 53.4367C14.5883 52.6942 14.0933 52.1992 13.3508 52.1992ZM82.6508 52.1992C81.9083 52.1992 81.4133 52.6942 81.4133 53.4367C81.4133 54.1792 81.9083 54.6742 82.6508 54.6742C83.3933 54.6742 83.8883 54.1792 83.8883 53.4367C83.8883 52.6942 83.3933 52.1992 82.6508 52.1992ZM13.3508 57.1492C12.6083 57.1492 12.1133 57.6442 12.1133 58.3867C12.1133 59.1292 12.6083 59.6242 13.3508 59.6242C14.0933 59.6242 14.5883 59.1292 14.5883 58.3867C14.5883 57.6442 14.0933 57.1492 13.3508 57.1492ZM82.6508 57.1492C81.9083 57.1492 81.4133 57.6442 81.4133 58.3867C81.4133 59.1292 81.9083 59.6242 82.6508 59.6242C83.3933 59.6242 83.8883 59.1292 83.8883 58.3867C83.8883 57.6442 83.3933 57.1492 82.6508 57.1492ZM13.3508 62.0992C12.6083 62.0992 12.1133 62.5942 12.1133 63.3367C12.1133 64.0792 12.6083 64.5742 13.3508 64.5742C14.0933 64.5742 14.5883 64.0792 14.5883 63.3367C14.5883 62.5942 14.0933 62.0992 13.3508 62.0992ZM82.6508 62.0992C81.9083 62.0992 81.4133 62.5942 81.4133 63.3367C81.4133 64.0792 81.9083 64.5742 82.6508 64.5742C83.3933 64.5742 83.8883 64.0792 83.8883 63.3367C83.8883 62.5942 83.3933 62.0992 82.6508 62.0992ZM2.21328 71.9992H9.63828H38.6156C39.1642 73.3689 40.2578 74.4742 41.8133 74.4742H54.1883C55.7438 74.4742 56.8374 73.3689 57.386 71.9992H86.3633H93.7883V73.2367C93.7883 75.2842 92.1233 76.9492 90.0758 76.9492H5.92578C3.87828 76.9492 2.21328 75.2842 2.21328 73.2367V71.9992Z" fill="#EDB200"></path></g><defs><clipPath><rect width="96" height="95" fill="white"></rect></clipPath></defs></svg>