<svg xmlns="http://www.w3.org/2000/svg" width="131" height="117" viewBox="0 0 131 117" fill="none"><path d="M60.5868 7.73828C58.6423 7.73828 57.0944 9.49092 57.3374 11.4227L57.7532 14.7744C45.0946 16.0857 36.0755 20.3521 30.2995 24.4971C24.2548 28.8339 21.5427 33.062 21.5427 33.062C21.2229 33.5609 21.2037 34.2005 21.4915 34.725C21.7794 35.2496 22.3295 35.5758 22.9243 35.5758H108.074C108.669 35.5758 109.219 35.2496 109.507 34.725C109.795 34.2005 109.776 33.5609 109.456 33.062C109.456 33.062 106.744 28.8339 100.699 24.4971C94.9232 20.3521 85.9041 16.0857 73.2455 14.7744L73.6613 11.4227C73.9043 9.49092 72.3564 7.73828 70.4118 7.73828H60.5868ZM60.5868 11.0133H70.4118L69.7978 15.9514C69.7402 16.3991 69.8681 16.8469 70.1496 17.1923C70.431 17.5377 70.8468 17.7552 71.2882 17.7936C84.3178 18.8042 93.1705 23.1282 98.7867 27.158C101.492 29.0961 103.347 30.9063 104.62 32.3008H26.3784C27.6513 30.9063 29.5063 29.0961 32.212 27.158C37.8282 23.1282 46.6809 18.8042 59.7105 17.7936C60.1519 17.7552 60.5677 17.5377 60.8491 17.1923C61.1305 16.8469 61.2585 16.3991 61.2009 15.9514L60.5868 11.0133ZM13.0993 35.5758C12.5109 35.5694 11.9608 35.8764 11.6601 36.3881C11.3659 36.8999 11.3659 37.5267 11.6601 38.0384C11.9608 38.5501 12.5109 38.8572 13.0993 38.8508H18.6515C19.4255 38.8508 20.0843 39.3817 20.2442 40.1365L25.9115 66.1958C26.5256 69.0294 28.0415 71.4729 30.114 73.2767C28.195 73.4558 26.5256 74.7479 25.9115 76.5964L18.2677 99.5214C17.2187 102.656 19.6238 105.988 22.9243 105.988H108.074C111.375 105.988 113.78 102.656 112.731 99.5214L105.087 76.5964C104.473 74.7415 102.804 73.4558 100.885 73.2703C102.957 71.4729 104.473 69.0294 105.087 66.1958L110.754 40.1365C110.914 39.3753 111.573 38.8508 112.347 38.8508H117.899C118.488 38.8572 119.038 38.5501 119.339 38.0384C119.633 37.5267 119.633 36.8999 119.339 36.3881C119.038 35.8764 118.488 35.5694 117.899 35.5758H112.347C110.051 35.5758 108.042 37.2005 107.556 39.4457L101.889 65.5049C100.904 70.0272 96.9189 73.2383 92.2878 73.2383H38.7109C34.0798 73.2383 30.0948 70.0272 29.1161 65.5049L23.4489 39.4457C22.9563 37.1941 20.9478 35.5758 18.6515 35.5758H13.0993ZM31.1118 47.0383C30.2099 47.0383 29.4743 47.7739 29.4743 48.6758C29.4743 49.5777 30.2099 50.3133 31.1118 50.3133C32.0137 50.3133 32.7493 49.5777 32.7493 48.6758C32.7493 47.7739 32.0137 47.0383 31.1118 47.0383ZM40.9368 47.0383C40.0349 47.0383 39.2993 47.7739 39.2993 48.6758C39.2993 49.5777 40.0349 50.3133 40.9368 50.3133C41.8387 50.3133 42.5743 49.5777 42.5743 48.6758C42.5743 47.7739 41.8387 47.0383 40.9368 47.0383ZM60.5868 47.0383C59.6849 47.0383 58.9493 47.7739 58.9493 48.6758C58.9493 49.5777 59.6849 50.3133 60.5868 50.3133C61.4887 50.3133 62.2243 49.5777 62.2243 48.6758C62.2243 47.7739 61.4887 47.0383 60.5868 47.0383ZM70.4118 47.0383C69.5099 47.0383 68.7743 47.7739 68.7743 48.6758C68.7743 49.5777 69.5099 50.3133 70.4118 50.3133C71.3137 50.3133 72.0493 49.5777 72.0493 48.6758C72.0493 47.7739 71.3137 47.0383 70.4118 47.0383ZM90.0618 47.0383C89.1599 47.0383 88.4243 47.7739 88.4243 48.6758C88.4243 49.5777 89.1599 50.3133 90.0618 50.3133C90.9637 50.3133 91.6993 49.5777 91.6993 48.6758C91.6993 47.7739 90.9637 47.0383 90.0618 47.0383ZM99.8868 47.0383C98.9849 47.0383 98.2493 47.7739 98.2493 48.6758C98.2493 49.5777 98.9849 50.3133 99.8868 50.3133C100.789 50.3133 101.524 49.5777 101.524 48.6758C101.524 47.7739 100.789 47.0383 99.8868 47.0383ZM36.0243 51.9508C35.1224 51.9508 34.3868 52.6864 34.3868 53.5883C34.3868 54.4902 35.1224 55.2258 36.0243 55.2258C36.9262 55.2258 37.6618 54.4902 37.6618 53.5883C37.6618 52.6864 36.9262 51.9508 36.0243 51.9508ZM45.8493 51.9508C44.9474 51.9508 44.2118 52.6864 44.2118 53.5883C44.2118 54.4902 44.9474 55.2258 45.8493 55.2258C46.7512 55.2258 47.4868 54.4902 47.4868 53.5883C47.4868 52.6864 46.7512 51.9508 45.8493 51.9508ZM55.6743 51.9508C54.7724 51.9508 54.0368 52.6864 54.0368 53.5883C54.0368 54.4902 54.7724 55.2258 55.6743 55.2258C56.5762 55.2258 57.3118 54.4902 57.3118 53.5883C57.3118 52.6864 56.5762 51.9508 55.6743 51.9508ZM65.4993 51.9508C64.5974 51.9508 63.8618 52.6864 63.8618 53.5883C63.8618 54.4902 64.5974 55.2258 65.4993 55.2258C66.4012 55.2258 67.1368 54.4902 67.1368 53.5883C67.1368 52.6864 66.4012 51.9508 65.4993 51.9508ZM75.3243 51.9508C74.4224 51.9508 73.6868 52.6864 73.6868 53.5883C73.6868 54.4902 74.4224 55.2258 75.3243 55.2258C76.2262 55.2258 76.9618 54.4902 76.9618 53.5883C76.9618 52.6864 76.2262 51.9508 75.3243 51.9508ZM85.1493 51.9508C84.2474 51.9508 83.5118 52.6864 83.5118 53.5883C83.5118 54.4902 84.2474 55.2258 85.1493 55.2258C86.0512 55.2258 86.7868 54.4902 86.7868 53.5883C86.7868 52.6864 86.0512 51.9508 85.1493 51.9508ZM94.9743 51.9508C94.0724 51.9508 93.3368 52.6864 93.3368 53.5883C93.3368 54.4902 94.0724 55.2258 94.9743 55.2258C95.8762 55.2258 96.6118 54.4902 96.6118 53.5883C96.6118 52.6864 95.8762 51.9508 94.9743 51.9508ZM31.1118 56.8633C30.2099 56.8633 29.4743 57.5989 29.4743 58.5008C29.4743 59.4027 30.2099 60.1383 31.1118 60.1383C32.0137 60.1383 32.7493 59.4027 32.7493 58.5008C32.7493 57.5989 32.0137 56.8633 31.1118 56.8633ZM40.9368 56.8633C40.0349 56.8633 39.2993 57.5989 39.2993 58.5008C39.2993 59.4027 40.0349 60.1383 40.9368 60.1383C41.8387 60.1383 42.5743 59.4027 42.5743 58.5008C42.5743 57.5989 41.8387 56.8633 40.9368 56.8633ZM50.7618 56.8633C49.8599 56.8633 49.1243 57.5989 49.1243 58.5008C49.1243 59.4027 49.8599 60.1383 50.7618 60.1383C51.6637 60.1383 52.3993 59.4027 52.3993 58.5008C52.3993 57.5989 51.6637 56.8633 50.7618 56.8633ZM60.5868 56.8633C59.6849 56.8633 58.9493 57.5989 58.9493 58.5008C58.9493 59.4027 59.6849 60.1383 60.5868 60.1383C61.4887 60.1383 62.2243 59.4027 62.2243 58.5008C62.2243 57.5989 61.4887 56.8633 60.5868 56.8633ZM70.4118 56.8633C69.5099 56.8633 68.7743 57.5989 68.7743 58.5008C68.7743 59.4027 69.5099 60.1383 70.4118 60.1383C71.3137 60.1383 72.0493 59.4027 72.0493 58.5008C72.0493 57.5989 71.3137 56.8633 70.4118 56.8633ZM80.2368 56.8633C79.3349 56.8633 78.5993 57.5989 78.5993 58.5008C78.5993 59.4027 79.3349 60.1383 80.2368 60.1383C81.1387 60.1383 81.8743 59.4027 81.8743 58.5008C81.8743 57.5989 81.1387 56.8633 80.2368 56.8633ZM90.0618 56.8633C89.1599 56.8633 88.4243 57.5989 88.4243 58.5008C88.4243 59.4027 89.1599 60.1383 90.0618 60.1383C90.9637 60.1383 91.6993 59.4027 91.6993 58.5008C91.6993 57.5989 90.9637 56.8633 90.0618 56.8633ZM99.8868 56.8633C98.9849 56.8633 98.2493 57.5989 98.2493 58.5008C98.2493 59.4027 98.9849 60.1383 99.8868 60.1383C100.789 60.1383 101.524 59.4027 101.524 58.5008C101.524 57.5989 100.789 56.8633 99.8868 56.8633ZM36.0243 61.7758C35.1224 61.7758 34.3868 62.5114 34.3868 63.4133C34.3868 64.3152 35.1224 65.0508 36.0243 65.0508C36.9262 65.0508 37.6618 64.3152 37.6618 63.4133C37.6618 62.5114 36.9262 61.7758 36.0243 61.7758ZM45.8493 61.7758C44.9474 61.7758 44.2118 62.5114 44.2118 63.4133C44.2118 64.3152 44.9474 65.0508 45.8493 65.0508C46.7512 65.0508 47.4868 64.3152 47.4868 63.4133C47.4868 62.5114 46.7512 61.7758 45.8493 61.7758ZM55.6743 61.7758C54.7724 61.7758 54.0368 62.5114 54.0368 63.4133C54.0368 64.3152 54.7724 65.0508 55.6743 65.0508C56.5762 65.0508 57.3118 64.3152 57.3118 63.4133C57.3118 62.5114 56.5762 61.7758 55.6743 61.7758ZM65.4993 61.7758C64.5974 61.7758 63.8618 62.5114 63.8618 63.4133C63.8618 64.3152 64.5974 65.0508 65.4993 65.0508C66.4012 65.0508 67.1368 64.3152 67.1368 63.4133C67.1368 62.5114 66.4012 61.7758 65.4993 61.7758ZM75.3243 61.7758C74.4224 61.7758 73.6868 62.5114 73.6868 63.4133C73.6868 64.3152 74.4224 65.0508 75.3243 65.0508C76.2262 65.0508 76.9618 64.3152 76.9618 63.4133C76.9618 62.5114 76.2262 61.7758 75.3243 61.7758ZM85.1493 61.7758C84.2474 61.7758 83.5118 62.5114 83.5118 63.4133C83.5118 64.3152 84.2474 65.0508 85.1493 65.0508C86.0512 65.0508 86.7868 64.3152 86.7868 63.4133C86.7868 62.5114 86.0512 61.7758 85.1493 61.7758ZM94.9743 61.7758C94.0724 61.7758 93.3368 62.5114 93.3368 63.4133C93.3368 64.3152 94.0724 65.0508 94.9743 65.0508C95.8762 65.0508 96.6118 64.3152 96.6118 63.4133C96.6118 62.5114 95.8762 61.7758 94.9743 61.7758ZM40.9368 66.6883C40.0349 66.6883 39.2993 67.4239 39.2993 68.3258C39.2993 69.2277 40.0349 69.9633 40.9368 69.9633C41.8387 69.9633 42.5743 69.2277 42.5743 68.3258C42.5743 67.4239 41.8387 66.6883 40.9368 66.6883ZM50.7618 66.6883C49.8599 66.6883 49.1243 67.4239 49.1243 68.3258C49.1243 69.2277 49.8599 69.9633 50.7618 69.9633C51.6637 69.9633 52.3993 69.2277 52.3993 68.3258C52.3993 67.4239 51.6637 66.6883 50.7618 66.6883ZM60.5868 66.6883C59.6849 66.6883 58.9493 67.4239 58.9493 68.3258C58.9493 69.2277 59.6849 69.9633 60.5868 69.9633C61.4887 69.9633 62.2243 69.2277 62.2243 68.3258C62.2243 67.4239 61.4887 66.6883 60.5868 66.6883ZM70.4118 66.6883C69.5099 66.6883 68.7743 67.4239 68.7743 68.3258C68.7743 69.2277 69.5099 69.9633 70.4118 69.9633C71.3137 69.9633 72.0493 69.2277 72.0493 68.3258C72.0493 67.4239 71.3137 66.6883 70.4118 66.6883ZM80.2368 66.6883C79.3349 66.6883 78.5993 67.4239 78.5993 68.3258C78.5993 69.2277 79.3349 69.9633 80.2368 69.9633C81.1387 69.9633 81.8743 69.2277 81.8743 68.3258C81.8743 67.4239 81.1387 66.6883 80.2368 66.6883ZM90.0618 66.6883C89.1599 66.6883 88.4243 67.4239 88.4243 68.3258C88.4243 69.2277 89.1599 69.9633 90.0618 69.9633C90.9637 69.9633 91.6993 69.2277 91.6993 68.3258C91.6993 67.4239 90.9637 66.6883 90.0618 66.6883ZM30.5681 76.5133H100.431C101.141 76.5133 101.755 76.9546 101.985 77.6327L109.629 100.558C109.993 101.664 109.239 102.713 108.074 102.713H22.9243C21.7602 102.713 21.0054 101.664 21.37 100.558L29.0138 77.6327C29.2441 76.9546 29.8581 76.5133 30.5681 76.5133ZM65.4993 79.7883C60.1327 79.7883 55.6743 84.2466 55.6743 89.6133C55.6743 94.9799 60.1327 99.4383 65.4993 99.4383C70.866 99.4383 75.3243 94.9799 75.3243 89.6133C75.3243 84.2466 70.866 79.7883 65.4993 79.7883ZM65.4993 83.0633C69.0238 83.0633 72.0493 86.0888 72.0493 89.6133C72.0493 93.1377 69.0238 96.1633 65.4993 96.1633C61.9749 96.1633 58.9493 93.1377 58.9493 89.6133C58.9493 86.0888 61.9749 83.0633 65.4993 83.0633ZM66.8746 86.5558C66.446 86.5686 66.043 86.7477 65.7488 87.0547L62.9408 89.8627C62.5122 90.2721 62.3395 90.8798 62.4866 91.4555C62.6337 92.0248 63.0879 92.4789 63.6572 92.626C64.2328 92.7731 64.8405 92.6004 65.2499 92.1719L68.0579 89.3638C68.5441 88.8969 68.6912 88.1741 68.4289 87.5536C68.1667 86.9332 67.5462 86.5366 66.8746 86.5558ZM36.0243 87.9758C35.1224 87.9758 34.3868 88.7114 34.3868 89.6133C34.3868 90.5152 35.1224 91.2508 36.0243 91.2508C36.9262 91.2508 37.6618 90.5152 37.6618 89.6133C37.6618 88.7114 36.9262 87.9758 36.0243 87.9758ZM42.5743 87.9758C41.6724 87.9758 40.9368 88.7114 40.9368 89.6133C40.9368 90.5152 41.6724 91.2508 42.5743 91.2508C43.4762 91.2508 44.2118 90.5152 44.2118 89.6133C44.2118 88.7114 43.4762 87.9758 42.5743 87.9758ZM49.1243 87.9758C48.2224 87.9758 47.4868 88.7114 47.4868 89.6133C47.4868 90.5152 48.2224 91.2508 49.1243 91.2508C50.0262 91.2508 50.7618 90.5152 50.7618 89.6133C50.7618 88.7114 50.0262 87.9758 49.1243 87.9758ZM81.8743 87.9758C80.9724 87.9758 80.2368 88.7114 80.2368 89.6133C80.2368 90.5152 80.9724 91.2508 81.8743 91.2508C82.7762 91.2508 83.5118 90.5152 83.5118 89.6133C83.5118 88.7114 82.7762 87.9758 81.8743 87.9758ZM88.4243 87.9758C87.5224 87.9758 86.7868 88.7114 86.7868 89.6133C86.7868 90.5152 87.5224 91.2508 88.4243 91.2508C89.3262 91.2508 90.0618 90.5152 90.0618 89.6133C90.0618 88.7114 89.3262 87.9758 88.4243 87.9758ZM94.9743 87.9758C94.0724 87.9758 93.3368 88.7114 93.3368 89.6133C93.3368 90.5152 94.0724 91.2508 94.9743 91.2508C95.8762 91.2508 96.6118 90.5152 96.6118 89.6133C96.6118 88.7114 95.8762 87.9758 94.9743 87.9758Z" fill="#EDB200"></path></svg>