<svg xmlns="http://www.w3.org/2000/svg" width="97" height="95" viewBox="0 0 97 95" fill="none"><g clip-path="url(#clip0_1430_649)"><path d="M89.7271 87.2267H87.1575V34.5263H89.7271C90.2537 34.5263 90.7273 34.2047 90.9217 33.7152C91.1161 33.2256 90.9906 32.6654 90.6054 32.3031C84.4873 26.5632 76.457 23.2868 67.8771 22.9881V16.5378H71.7421C72.2687 16.5378 72.7423 16.2161 72.9367 15.7266C73.1311 15.2353 73.0056 14.6751 72.6204 14.3164C59.3786 1.89455 37.8344 1.89455 24.5926 14.3164C24.2073 14.6751 24.0818 15.2353 24.2762 15.7266C24.4706 16.2161 24.9442 16.5378 25.4709 16.5378H29.3181V22.9881C20.7382 23.2868 12.708 26.5614 6.58987 32.3031C6.20461 32.6654 6.07914 33.2239 6.27353 33.7152C6.46793 34.2065 6.94154 34.5263 7.46817 34.5263H10.0395V87.2267H7.46817C6.75775 87.2267 6.18164 87.801 6.18164 88.5132C6.18164 89.2254 6.75775 89.7997 7.46817 89.7997H11.3243H30.6029H38.3133H58.8784H66.5906H85.8692H89.7253C90.4357 89.7997 91.0118 89.2254 91.0118 88.5132C91.0118 87.801 90.4375 87.2267 89.7271 87.2267ZM86.2015 31.955H67.8789V25.5789C74.6138 25.8333 80.9811 28.0406 86.2015 31.955ZM68.2129 13.9682H66.5924H30.6064H29.0053C40.4322 5.42016 56.7843 5.42016 68.2129 13.9682ZM29.3216 25.5789V31.955H10.9973C16.2195 28.0406 22.585 25.8333 29.3216 25.5789ZM12.6126 34.5316H29.3216V87.2249H12.6126V34.5316ZM39.6033 87.2267V84.9787C39.6033 82.8528 41.3335 81.1227 43.4594 81.1227H53.7411C55.8671 81.1227 57.5972 82.8528 57.5972 84.9787V87.2267H39.6033ZM60.1667 87.2267V84.9787C60.1667 81.4355 57.2844 78.5531 53.7411 78.5531H43.4594C39.9161 78.5531 37.0338 81.4355 37.0338 84.9787V87.2267H31.893V16.5378H65.3076V87.2267H60.1667ZM67.8789 87.2267V34.5334H84.588V87.2267H67.8789Z" fill="#EDB200"></path><path d="M17.7594 78.2324C17.0401 78.2324 16.4746 78.8085 16.4746 79.519C16.4746 80.2241 17.0401 80.8037 17.7594 80.8037C18.4663 80.8037 19.0459 80.2259 19.0459 79.519C19.0442 78.8085 18.4663 78.2324 17.7594 78.2324Z" fill="#EDB200"></path><path d="M24.1889 78.2324C23.4679 78.2324 22.9023 78.8085 22.9023 79.519C22.9023 80.2241 23.4679 80.8037 24.1889 80.8037C24.8958 80.8037 25.4736 80.2259 25.4736 79.519C25.4736 78.8085 24.8958 78.2324 24.1889 78.2324Z" fill="#EDB200"></path><path d="M24.1856 73.0907C24.8925 73.0907 25.458 72.5128 25.458 71.8059C25.458 71.099 24.8925 70.5176 24.1856 70.5176C23.4646 70.5176 22.8867 71.0972 22.8867 71.8059C22.8885 72.5128 23.4664 73.0907 24.1856 73.0907Z" fill="#EDB200"></path><path d="M17.762 73.0907C18.4689 73.0907 19.0344 72.5128 19.0344 71.8059C19.0344 71.099 18.4689 70.5176 17.762 70.5176C17.0427 70.5176 16.4648 71.0972 16.4648 71.8059C16.4631 72.5128 17.041 73.0907 17.762 73.0907Z" fill="#EDB200"></path><path d="M17.762 62.8066C17.0427 62.8066 16.4648 63.3721 16.4648 64.0932C16.4648 64.8001 17.0427 65.378 17.762 65.378C18.4689 65.378 19.0485 64.8018 19.0485 64.0932C19.0468 63.3739 18.4689 62.8066 17.762 62.8066Z" fill="#EDB200"></path><path d="M24.1856 62.8066C23.4646 62.8066 22.8867 63.3721 22.8867 64.0932C22.8867 64.8001 23.4646 65.378 24.1856 65.378C24.8925 65.378 25.4704 64.8018 25.4704 64.0932C25.4704 63.3739 24.8925 62.8066 24.1856 62.8066Z" fill="#EDB200"></path><path d="M24.1715 55.0957C23.4646 55.0957 22.8867 55.6612 22.8867 56.3822C22.8867 57.0874 23.4646 57.667 24.1715 57.667C24.8925 57.667 25.4704 57.0891 25.4704 56.3822C25.4686 55.6612 24.8908 55.0957 24.1715 55.0957Z" fill="#EDB200"></path><path d="M17.762 55.0957C17.0427 55.0957 16.4648 55.6612 16.4648 56.3822C16.4648 57.0874 17.0427 57.667 17.762 57.667C18.4689 57.667 19.0485 57.0891 19.0485 56.3822C19.0468 55.6612 18.4689 55.0957 17.762 55.0957Z" fill="#EDB200"></path><path d="M24.1889 49.958C24.8958 49.958 25.4613 49.3801 25.4613 48.6715C25.4613 47.9522 24.8958 47.3867 24.1889 47.3867C23.4679 47.3867 22.9023 47.9505 22.9023 48.6715C22.9041 49.3801 23.4696 49.958 24.1889 49.958Z" fill="#EDB200"></path><path d="M17.762 49.958C18.4689 49.958 19.0344 49.3801 19.0344 48.6715C19.0344 47.9522 18.4689 47.3867 17.762 47.3867C17.0427 47.3867 16.4648 47.9505 16.4648 48.6715C16.4631 49.3801 17.041 49.958 17.762 49.958Z" fill="#EDB200"></path><path d="M24.1889 42.2315C24.8958 42.2315 25.4736 41.6659 25.4736 40.9449C25.4736 40.2398 24.8958 39.6602 24.1889 39.6602C23.4679 39.6602 22.9023 40.238 22.9023 40.9449C22.9041 41.6642 23.4696 42.2315 24.1889 42.2315Z" fill="#EDB200"></path><path d="M17.7594 39.6602C17.0401 39.6602 16.4746 40.238 16.4746 40.9449C16.4746 41.6642 17.0401 42.2315 17.7594 42.2315C18.4663 42.2315 19.0459 41.6659 19.0459 40.9449C19.0442 40.238 18.4663 39.6602 17.7594 39.6602Z" fill="#EDB200"></path><path d="M79.4386 78.2324C78.7335 78.2324 78.168 78.8085 78.168 79.519C78.168 80.2241 78.7335 80.8037 79.4386 80.8037C80.1596 80.8037 80.7251 80.2259 80.7251 79.519C80.7251 78.8085 80.1596 78.2324 79.4386 78.2324Z" fill="#EDB200"></path><path d="M73.0287 78.2324C72.3095 78.2324 71.7422 78.8085 71.7422 79.519C71.7422 80.2241 72.3077 80.8037 73.0287 80.8037C73.7356 80.8037 74.3011 80.2259 74.3011 79.519C74.2994 78.8085 73.7356 78.2324 73.0287 78.2324Z" fill="#EDB200"></path><path d="M79.4386 70.5176C78.7335 70.5176 78.168 71.0849 78.168 71.8059C78.168 72.511 78.7335 73.0907 79.4386 73.0907C80.1596 73.0907 80.7251 72.5128 80.7251 71.8059C80.7251 71.0849 80.1596 70.5176 79.4386 70.5176Z" fill="#EDB200"></path><path d="M73.0287 70.5176C72.3095 70.5176 71.7422 71.0849 71.7422 71.8059C71.7422 72.511 72.3077 73.0907 73.0287 73.0907C73.7356 73.0907 74.3011 72.5128 74.3011 71.8059C74.2994 71.0849 73.7356 70.5176 73.0287 70.5176Z" fill="#EDB200"></path><path d="M73.0287 62.8066C72.3095 62.8066 71.7422 63.3845 71.7422 64.0932C71.7422 64.8018 72.3077 65.378 73.0287 65.378C73.7356 65.378 74.3011 64.8018 74.3011 64.0932C74.3011 63.3845 73.7356 62.8066 73.0287 62.8066Z" fill="#EDB200"></path><path d="M79.4386 62.8066C78.7335 62.8066 78.168 63.3845 78.168 64.0932C78.168 64.8018 78.7335 65.378 79.4386 65.378C80.1596 65.378 80.7251 64.8018 80.7251 64.0932C80.7251 63.3845 80.1596 62.8066 79.4386 62.8066Z" fill="#EDB200"></path><path d="M73.0287 55.0957C72.3095 55.0957 71.7422 55.6612 71.7422 56.3822C71.7422 57.0874 72.3077 57.667 73.0287 57.667C73.7356 57.667 74.3011 57.0891 74.3011 56.3822C74.2994 55.6612 73.7356 55.0957 73.0287 55.0957Z" fill="#EDB200"></path><path d="M79.4386 55.0957C78.7335 55.0957 78.168 55.6612 78.168 56.3822C78.168 57.0874 78.7335 57.667 79.4386 57.667C80.1596 57.667 80.7251 57.0891 80.7251 56.3822C80.7251 55.6612 80.1596 55.0957 79.4386 55.0957Z" fill="#EDB200"></path><path d="M79.4386 47.3867C78.7335 47.3867 78.168 47.9505 78.168 48.6715C78.168 49.3784 78.7335 49.958 79.4386 49.958C80.1596 49.958 80.7251 49.3801 80.7251 48.6715C80.7251 47.9505 80.1596 47.3867 79.4386 47.3867Z" fill="#EDB200"></path><path d="M73.0287 47.3867C72.3095 47.3867 71.7422 47.9505 71.7422 48.6715C71.7422 49.3784 72.3077 49.958 73.0287 49.958C73.7356 49.958 74.3011 49.3801 74.3011 48.6715C74.2994 47.9505 73.7356 47.3867 73.0287 47.3867Z" fill="#EDB200"></path><path d="M79.4386 39.6738C78.7335 39.6738 78.168 40.2393 78.168 40.9604C78.168 41.6655 78.7335 42.2469 79.4386 42.2469C80.1596 42.2469 80.7251 41.6672 80.7251 40.9604C80.7251 40.2393 80.1596 39.6738 79.4386 39.6738Z" fill="#EDB200"></path><path d="M73.0287 39.6758C72.3095 39.6758 71.7422 40.2413 71.7422 40.9623C71.7422 41.6674 72.3077 42.2488 73.0287 42.2488C73.7356 42.2488 74.3011 41.6692 74.3011 40.9623C74.2994 40.2413 73.7356 39.6758 73.0287 39.6758Z" fill="#EDB200"></path><path d="M37.685 21.3848C36.9745 21.3848 36.3984 21.9609 36.3984 22.6695V73.1167C36.3984 73.8253 36.9745 74.4032 37.685 74.4032C38.3936 74.4032 38.9697 73.8271 38.9697 73.1167V22.6678C38.9697 21.9609 38.3936 21.3848 37.685 21.3848Z" fill="#EDB200"></path><path d="M44.9645 21.3848C44.254 21.3848 43.6797 21.9609 43.6797 22.6695V73.1167C43.6797 73.8253 44.254 74.4032 44.9645 74.4032C45.6749 74.4032 46.251 73.8271 46.251 73.1167V22.6678C46.251 21.9609 45.6749 21.3848 44.9645 21.3848Z" fill="#EDB200"></path><path d="M52.2494 21.3848C51.5408 21.3848 50.9629 21.9609 50.9629 22.6695V73.1167C50.9629 73.8253 51.539 74.4032 52.2494 74.4032C52.9599 74.4032 53.5342 73.8271 53.5342 73.1167V22.6678C53.5342 21.9609 52.9599 21.3848 52.2494 21.3848Z" fill="#EDB200"></path><path d="M59.5309 21.3848C58.8222 21.3848 58.2461 21.9609 58.2461 22.6695V73.1167C58.2461 73.8253 58.8222 74.4032 59.5309 74.4032C60.2395 74.4032 60.8174 73.8271 60.8174 73.1167V22.6678C60.8174 21.9609 60.2413 21.3848 59.5309 21.3848Z" fill="#EDB200"></path></g><defs><clipPath><rect width="96" height="95" fill="white" transform="translate(0.5)"></rect></clipPath></defs></svg>