<svg xmlns="http://www.w3.org/2000/svg" width="97" height="95" viewBox="0 0 97 95" fill="none"><path d="M56.523 46.7051H51.9644C51.1707 46.7051 50.5254 47.3259 50.5254 48.0956C50.5254 48.8615 51.1707 49.4861 51.9644 49.4861H56.523C57.3168 49.4861 57.9621 48.8634 57.9621 48.0956C57.9621 47.3259 57.3188 46.7051 56.523 46.7051Z" fill="#EDB200"></path><path d="M33.4898 46.7051H28.9332C28.1375 46.7051 27.4922 47.3259 27.4922 48.0956C27.4922 48.8615 28.1375 49.4861 28.9332 49.4861H33.4898C34.2856 49.4861 34.9289 48.8634 34.9289 48.0956C34.9289 47.3259 34.2856 46.7051 33.4898 46.7051Z" fill="#EDB200"></path><path d="M95.3979 47.8285C95.3899 47.8111 95.3799 47.7938 95.3719 47.7783C93.2179 42.9285 88.2278 39.5223 82.4237 39.5184L74.7635 39.5165C73.1875 39.5146 71.6914 38.9395 70.5494 37.8954L57.6891 26.1463C55.7331 24.3592 53.1731 23.375 50.479 23.375H30.5286C27.8346 23.375 25.2745 24.3592 23.3185 26.1463L13.5843 35.0392C10.4302 37.9205 6.30012 39.5146 1.95403 39.5261C1.15202 39.5281 0.501999 40.1572 0.501999 40.9311V48.3515C0.501999 48.3534 0.501999 48.3554 0.501999 48.3554V55.3686C0.501999 55.3705 0.5 55.3724 0.5 55.3743C0.5 55.3763 0.501999 55.3782 0.501999 55.3801V58.4332C0.501999 61.5306 3.11405 64.0472 6.32012 64.0472H13.5363C14.2703 68.8912 18.5904 72.6236 23.8085 72.6236C29.0266 72.6236 33.3467 68.8893 34.0787 64.0472H62.9233C63.6553 68.8912 67.9754 72.6236 73.1955 72.6236C78.4116 72.6236 82.7337 68.8893 83.4657 64.0472H90.6818C93.8899 64.0472 96.4999 61.5306 96.4999 58.4332V53.1164C96.5059 51.2386 96.1119 49.4535 95.3979 47.8285ZM23.8125 69.8137C19.6864 69.8137 16.3283 66.5734 16.3283 62.5921C16.3283 58.6107 19.6864 55.3724 23.8125 55.3724C27.9386 55.3724 31.2966 58.6127 31.2966 62.5921C31.2966 66.5753 27.9386 69.8137 23.8125 69.8137ZM73.1995 69.8137C69.0714 69.8137 65.7133 66.5734 65.7133 62.5921C65.7133 58.6107 69.0714 55.3724 73.1995 55.3724C77.3256 55.3724 80.6816 58.6127 80.6816 62.5921C80.6816 66.5753 77.3256 69.8137 73.1995 69.8137ZM93.5979 58.4312C93.5979 59.9809 92.2918 61.2393 90.6878 61.2393H83.4857C82.7977 56.3509 78.4516 52.5663 73.1995 52.5663C67.9454 52.5663 63.6013 56.3509 62.9113 61.2393H34.0987C33.4087 56.3509 29.0646 52.5663 23.8105 52.5663C18.5584 52.5663 14.2123 56.3509 13.5223 61.2393H6.32012C4.71608 61.2393 3.41206 59.9809 3.41006 58.4312V56.7773H7.77215C8.57617 56.7773 9.22818 56.1501 9.22818 55.3724C9.22818 54.5985 8.57617 53.9674 7.77215 53.9674H3.41006V49.7564H7.77415C8.57816 49.7564 9.23018 49.1273 9.23018 48.3515C9.23018 47.5757 8.57816 46.9465 7.77415 46.9465H3.41006V42.2743C7.96215 41.9443 12.2402 40.1263 15.5823 37.0733L25.3165 28.1804C26.7305 26.8912 28.5806 26.1791 30.5266 26.1791H36.6047L39.0068 39.5127H18.9204C18.1164 39.5127 17.4663 40.1399 17.4663 40.9176C17.4663 41.6954 18.1164 42.3206 18.9204 42.3206H40.7408C41.1688 42.3206 41.5768 42.1373 41.8528 41.8208C42.1288 41.5043 42.2468 41.0836 42.1728 40.6764L39.5608 26.1791H44.4929L47.1929 41.155C47.3149 41.8304 47.919 42.3206 48.627 42.3206H62.8053C63.6093 42.3206 64.2613 41.6954 64.2613 40.9176C64.2613 40.1399 63.6093 39.5127 62.8053 39.5127H49.849L47.4449 26.1791H50.479C52.4251 26.1791 54.2751 26.8912 55.6891 28.1804L68.5494 39.9295C70.2354 41.4715 72.4395 42.3187 74.7635 42.3187L82.4217 42.3206C86.2097 42.3245 89.5558 44.1579 91.5778 46.9465H84.8677C84.3977 46.9465 83.9577 47.1646 83.6837 47.5351C83.4117 47.9037 83.3397 48.3804 83.4917 48.8069L84.9477 52.8905C85.1557 53.4734 85.7197 53.8362 86.3237 53.8362C86.4817 53.8362 86.6397 53.8111 86.7957 53.761C87.5558 53.5081 87.9598 52.7091 87.6978 51.9758L86.9057 49.7545H93.0339C93.3939 50.8121 93.5939 51.9372 93.5939 53.1106V58.4312H93.5979Z" fill="#EDB200"></path><path d="M23.566 63.5739C24.3619 63.5739 25.007 62.9514 25.007 62.1834C25.007 61.4155 24.3619 60.793 23.566 60.793C22.7702 60.793 22.125 61.4155 22.125 62.1834C22.125 62.9514 22.7702 63.5739 23.566 63.5739Z" fill="#EDB200"></path><path d="M72.4449 63.5739C73.2408 63.5739 73.8859 62.9514 73.8859 62.1834C73.8859 61.4155 73.2408 60.793 72.4449 60.793C71.6491 60.793 71.0039 61.4155 71.0039 62.1834C71.0039 62.9514 71.6491 63.5739 72.4449 63.5739Z" fill="#EDB200"></path></svg>