<svg xmlns="http://www.w3.org/2000/svg" width="132" height="117" viewBox="0 0 132 117" fill="none"><path d="M39.8328 8.5C35.0246 8.5 30.4033 10.4143 27.0002 13.8174L4.26758 36.55L21.4508 53.7332L31.3508 43.8332V107.5H100.651V43.8332L110.551 53.7332L127.734 36.55L105.001 13.8174C101.598 10.4143 96.977 8.5 92.1687 8.5H39.8328ZM39.8328 11.8H49.5008C49.5008 12.7088 50.242 13.45 51.1508 13.45C52.0596 13.45 52.8008 12.7088 52.8008 11.8H79.2008C79.2008 12.6443 79.8453 13.3533 80.6896 13.4436C80.7412 13.4436 80.7928 13.45 80.8508 13.45C81.7596 13.45 82.5008 12.7088 82.5008 11.8H92.1687C94.0057 11.8 95.8039 12.1545 97.4861 12.8055C97.3959 13.0053 97.3508 13.2244 97.3508 13.45C97.3508 14.3588 98.092 15.1 99.0008 15.1C99.5809 15.1 100.116 14.7971 100.412 14.3008C101.218 14.8357 101.972 15.4545 102.668 16.1506L123.068 36.55L110.551 49.0668L97.3508 35.8668V104.2H34.6508V35.8668L21.4508 49.0668L8.93398 36.55L29.3334 16.1506C30.0295 15.4545 30.7836 14.8357 31.5893 14.3008C31.8857 14.7971 32.4207 15.1 33.0008 15.1C33.9096 15.1 34.6508 14.3588 34.6508 13.45C34.6508 13.2244 34.6057 13.0053 34.5219 12.799C36.2041 12.1545 38.0023 11.8 39.8328 11.8ZM34.6508 97.6C34.6508 98.5088 35.392 99.25 36.3008 99.25C37.2096 99.25 37.9508 98.5088 37.9508 97.6C37.9508 96.6912 37.2096 95.95 36.3008 95.95C35.392 95.95 34.6508 96.6912 34.6508 97.6ZM97.3508 97.6C97.3508 96.6912 96.6096 95.95 95.7008 95.95C94.792 95.95 94.0508 96.6912 94.0508 97.6C94.0508 98.5088 94.792 99.25 95.7008 99.25C96.6096 99.25 97.3508 98.5088 97.3508 97.6ZM53.1037 17.575C52.8266 17.5814 52.5559 17.6588 52.3109 17.7941C51.9371 18.0133 51.66 18.3742 51.5439 18.7996C51.4344 19.2186 51.4924 19.6697 51.7115 20.05C52.1691 20.8363 53.1746 21.107 53.9609 20.6494C54.7537 20.1982 55.0244 19.1863 54.5732 18.4C54.2703 17.8779 53.7031 17.5621 53.1037 17.575ZM78.7818 17.575C78.5627 17.5879 78.3436 17.6459 78.1437 17.7361C78.0986 17.7619 78.0471 17.7877 78.002 17.8135C77.7635 17.9617 77.5701 18.1615 77.4283 18.4C76.9771 19.1928 77.2478 20.1982 78.0342 20.6559C78.4145 20.875 78.8656 20.933 79.2846 20.8234C79.71 20.7074 80.0709 20.4303 80.29 20.05C80.5092 19.6762 80.5672 19.225 80.4576 18.7996C80.3416 18.3742 80.0645 18.0133 79.6842 17.8006C79.4135 17.6395 79.0977 17.5621 78.7818 17.575ZM33.0008 18.4C32.092 18.4 31.3508 19.1412 31.3508 20.05C31.3508 20.9588 32.092 21.7 33.0008 21.7C33.9096 21.7 34.6508 20.9588 34.6508 20.05C34.6508 19.1412 33.9096 18.4 33.0008 18.4ZM99.0008 18.4C98.092 18.4 97.3508 19.1412 97.3508 20.05C97.3508 20.9588 98.092 21.7 99.0008 21.7C99.9096 21.7 100.651 20.9588 100.651 20.05C100.651 19.1412 99.9096 18.4 99.0008 18.4ZM73.3807 23.0084C73.1615 23.0148 72.9488 23.06 72.749 23.1502C72.6975 23.176 72.6459 23.2018 72.6008 23.2275C71.808 23.6852 71.5373 24.6971 71.9949 25.4834C72.2656 25.9539 72.7555 26.2633 73.2969 26.3084C73.3484 26.3084 73.4064 26.3084 73.458 26.3084C73.7352 26.302 74.0059 26.2246 74.2508 26.0893C74.6246 25.8701 74.9018 25.5092 75.0178 25.0838C75.1338 24.6648 75.0758 24.2137 74.8502 23.8334C74.5537 23.3113 73.9865 22.9955 73.3807 23.0084ZM58.4984 23.0148C57.9312 23.0406 57.4221 23.35 57.1449 23.8398C56.6873 24.6262 56.9645 25.6316 57.7508 26.0893C58.5371 26.5469 59.549 26.2762 60.0002 25.4898C60.2258 25.1096 60.2838 24.6584 60.1678 24.233C60.0582 23.8076 59.7811 23.4467 59.4008 23.2275C59.1236 23.0729 58.8143 22.9955 58.4984 23.0148ZM33.0008 25C32.092 25 31.3508 25.7412 31.3508 26.65C31.3508 27.5588 32.092 28.3 33.0008 28.3C33.9096 28.3 34.6508 27.5588 34.6508 26.65C34.6508 25.7412 33.9096 25 33.0008 25ZM66.0008 25C65.092 25 64.3508 25.7412 64.3508 26.65C64.3508 27.5588 65.092 28.3 66.0008 28.3C66.9096 28.3 67.6508 27.5588 67.6508 26.65C67.6508 25.7412 66.9096 25 66.0008 25ZM99.0008 25C98.092 25 97.3508 25.7412 97.3508 26.65C97.3508 27.5588 98.092 28.3 99.0008 28.3C99.9096 28.3 100.651 27.5588 100.651 26.65C100.651 25.7412 99.9096 25 99.0008 25ZM33.0008 31.6C32.092 31.6 31.3508 32.3412 31.3508 33.25C31.3508 34.1588 32.092 34.9 33.0008 34.9C33.9096 34.9 34.6508 34.1588 34.6508 33.25C34.6508 32.3412 33.9096 31.6 33.0008 31.6ZM99.0008 31.6C98.092 31.6 97.3508 32.3412 97.3508 33.25C97.3508 34.1588 98.092 34.9 99.0008 34.9C99.9096 34.9 100.651 34.1588 100.651 33.25C100.651 32.3412 99.9096 31.6 99.0008 31.6ZM42.9008 95.95C41.992 95.95 41.2508 96.6912 41.2508 97.6C41.2508 98.5088 41.992 99.25 42.9008 99.25C43.8096 99.25 44.5508 98.5088 44.5508 97.6C44.5508 96.6912 43.8096 95.95 42.9008 95.95ZM49.5008 95.95C48.592 95.95 47.8508 96.6912 47.8508 97.6C47.8508 98.5088 48.592 99.25 49.5008 99.25C50.4096 99.25 51.1508 98.5088 51.1508 97.6C51.1508 96.6912 50.4096 95.95 49.5008 95.95ZM56.1008 95.95C55.192 95.95 54.4508 96.6912 54.4508 97.6C54.4508 98.5088 55.192 99.25 56.1008 99.25C57.0096 99.25 57.7508 98.5088 57.7508 97.6C57.7508 96.6912 57.0096 95.95 56.1008 95.95ZM62.7008 95.95C61.792 95.95 61.0508 96.6912 61.0508 97.6C61.0508 98.5088 61.792 99.25 62.7008 99.25C63.6096 99.25 64.3508 98.5088 64.3508 97.6C64.3508 96.6912 63.6096 95.95 62.7008 95.95ZM69.3008 95.95C68.392 95.95 67.6508 96.6912 67.6508 97.6C67.6508 98.5088 68.392 99.25 69.3008 99.25C70.2096 99.25 70.9508 98.5088 70.9508 97.6C70.9508 96.6912 70.2096 95.95 69.3008 95.95ZM75.9008 95.95C74.992 95.95 74.2508 96.6912 74.2508 97.6C74.2508 98.5088 74.992 99.25 75.9008 99.25C76.8096 99.25 77.5508 98.5088 77.5508 97.6C77.5508 96.6912 76.8096 95.95 75.9008 95.95ZM82.5008 95.95C81.592 95.95 80.8508 96.6912 80.8508 97.6C80.8508 98.5088 81.592 99.25 82.5008 99.25C83.4096 99.25 84.1508 98.5088 84.1508 97.6C84.1508 96.6912 83.4096 95.95 82.5008 95.95ZM89.1008 95.95C88.192 95.95 87.4508 96.6912 87.4508 97.6C87.4508 98.5088 88.192 99.25 89.1008 99.25C90.0096 99.25 90.7508 98.5088 90.7508 97.6C90.7508 96.6912 90.0096 95.95 89.1008 95.95Z" fill="#EDB200"></path></svg>