<svg xmlns="http://www.w3.org/2000/svg" width="515" height="199" viewBox="0 0 515 199" fill="none"><path d="M0.60831 160.378V128.53L80.4609 2.72727H107.919V46.8097H91.6683L41.3285 126.475V127.97H154.803V160.378H0.60831ZM92.4155 194V150.665L93.1626 136.562V2.72727H131.081V194H92.4155ZM359.922 160.378V128.53L439.774 2.72727H467.233V46.8097H450.982L400.642 126.475V127.97H514.117V160.378H359.922ZM451.729 194V150.665L452.476 136.562V2.72727H490.394V194H451.729Z" fill="black"></path><path d="M256.744 198.203C240.68 198.141 226.857 194.187 215.276 186.342C203.758 178.496 194.885 167.133 188.659 152.252C182.495 137.372 179.444 119.471 179.506 98.5504C179.506 77.6922 182.588 59.9161 188.752 45.2219C194.979 30.5278 203.851 19.3516 215.37 11.6932C226.951 3.97253 240.742 0.112209 256.744 0.112209C272.745 0.112209 286.506 3.97253 298.024 11.6932C309.605 19.4138 318.509 30.6212 324.735 45.3153C330.962 59.9472 334.044 77.6922 333.981 98.5504C333.981 119.533 330.868 137.465 324.642 152.346C318.478 167.227 309.636 178.59 298.118 186.435C286.599 194.28 272.808 198.203 256.744 198.203ZM256.744 164.674C267.702 164.674 276.45 159.164 282.988 148.143C289.525 137.123 292.763 120.592 292.701 98.5504C292.701 84.0431 291.207 71.964 288.218 62.3132C285.291 52.6624 281.12 45.4087 275.703 40.5522C270.348 35.6957 264.029 33.2674 256.744 33.2674C245.848 33.2674 237.131 38.7154 230.593 49.6115C224.056 60.5076 220.756 76.8205 220.693 98.5504C220.693 113.245 222.157 125.51 225.083 135.348C228.072 145.123 232.274 152.47 237.691 157.389C243.108 162.246 249.459 164.674 256.744 164.674Z" fill="#D01013"></path></svg>