<svg xmlns="http://www.w3.org/2000/svg" width="133" height="117" viewBox="0 0 133 117" fill="none"><g clip-path="url(#clip0_1430_705)"><path d="M15.2234 99.6323C16.2561 99.6323 17.0932 98.7952 17.0932 97.7625C17.0932 96.7298 16.2561 95.8926 15.2234 95.8926C14.1907 95.8926 13.3535 96.7298 13.3535 97.7625C13.3535 98.7952 14.1907 99.6323 15.2234 99.6323Z" fill="#EDB200"></path><path d="M116.232 86.543H15.2242C9.03596 86.543 4 91.5763 4 97.7671C4 103.953 9.03596 108.986 15.2242 108.986H26.4484V114.601C26.4484 115.632 27.2843 116.471 28.3182 116.471C29.3522 116.471 30.1906 115.635 30.1906 114.601V108.986H101.27V114.601C101.27 115.632 102.109 116.471 103.143 116.471C104.177 116.471 105.013 115.635 105.013 114.601V108.986H116.237C122.425 108.986 127.461 103.953 127.461 97.7671C127.453 91.5763 122.42 86.543 116.232 86.543ZM7.73971 97.7671C7.73971 93.6391 11.0962 90.2852 15.2216 90.2852H107.888C106.103 92.2708 105.005 94.8891 105.005 97.7671C105.005 100.64 106.101 103.261 107.888 105.249H15.2216C11.0962 105.249 7.73971 101.893 7.73971 97.7671ZM116.232 105.249C112.106 105.249 108.75 101.89 108.75 97.7671C108.75 93.6391 112.106 90.2852 116.232 90.2852C120.357 90.2852 123.714 93.6391 123.714 97.7671C123.714 101.893 120.357 105.249 116.232 105.249Z" fill="#EDB200"></path><path d="M56.8374 43.351H79.9854C81.0167 43.351 81.8552 42.5151 81.8552 41.4811C81.8552 40.4472 81.0193 39.6087 79.9854 39.6087H56.8374C53.6533 39.6087 51.0633 37.0188 51.0633 33.8372C51.0633 30.6531 53.6533 28.0631 56.8374 28.0631H84.9596L103.231 81.5323C103.499 82.3116 104.224 82.7977 105.001 82.7977C105.201 82.7977 105.404 82.7643 105.605 82.6974C106.582 82.3631 107.104 81.3008 106.773 80.3209L88.4447 26.687L95.0624 20.0693L123.876 83.5667C124.19 84.2612 124.869 84.6675 125.582 84.6675C125.841 84.6675 126.104 84.6135 126.353 84.5004C127.295 84.0734 127.711 82.9649 127.284 82.0235L97.889 17.2427L111.94 3.19184C112.475 2.65686 112.634 1.85442 112.346 1.15484C112.056 0.455256 111.374 0 110.618 0H98.4574C98.0613 0 97.673 0.126005 97.3515 0.362629L75.2195 16.5765C74.3861 17.1861 74.2035 18.3563 74.8156 19.1897C75.4252 20.0256 76.5955 20.2081 77.4314 19.596L99.0721 3.7423H106.104L85.5254 24.3234H56.84C51.5931 24.3234 47.3262 28.5903 47.3262 33.8372C47.3236 39.0841 51.5931 43.351 56.8374 43.351Z" fill="#EDB200"></path><path d="M99.3975 97.765C99.3975 96.731 98.559 95.8926 97.5251 95.8926H24.573C23.5416 95.8926 22.7031 96.7285 22.7031 97.765C22.7031 98.7964 23.5416 99.6349 24.573 99.6349H97.5251C98.559 99.6349 99.3975 98.7989 99.3975 97.765Z" fill="#EDB200"></path></g><defs><clipPath><rect width="132" height="117" fill="white" transform="translate(0.25)"></rect></clipPath></defs></svg>