<svg xmlns="http://www.w3.org/2000/svg" width="133" height="117" viewBox="0 0 133 117" fill="none"><g clip-path="url(#clip0_1430_711)"><path d="M127.139 7.46419C127.495 6.52467 127.019 5.47241 126.077 5.11664C125.133 4.76338 124.083 5.23942 123.73 6.18145C118.351 20.4773 117.381 35.4646 118.11 48.192H93.3741C92.372 48.192 91.5527 49.0063 91.5527 50.0134C91.5527 51.0206 92.3695 51.8374 93.3741 51.8374H95.7818V79.5296C95.7818 80.5342 96.5986 81.3535 97.6033 81.3535C98.6105 81.3535 99.4297 80.5367 99.4297 79.5296V66.5967H120.387C121.881 74.4386 123.519 79.5346 123.705 80.1008C123.958 80.8674 124.672 81.3535 125.433 81.3535C125.621 81.3535 125.814 81.3234 126.005 81.2633C126.959 80.9476 127.48 79.9179 127.167 78.9633C127.039 78.575 114.748 40.3902 127.139 7.46419ZM99.4272 62.9513V51.8349H118.366C118.704 55.8485 119.187 59.5916 119.741 62.9513H99.4272Z" fill="#EDB200"></path><path d="M37.7087 33.4598H65.3082V74.0799L56.2161 77.843C55.2866 78.2263 54.8456 79.2936 55.2265 80.2231C55.6123 81.1551 56.6846 81.5936 57.6091 81.2103L67.1271 77.2718L76.6452 81.2103C76.8757 81.303 77.1112 81.3531 77.3442 81.3531C78.0582 81.3506 78.7371 80.9271 79.0278 80.2256C79.4086 79.2961 78.9702 78.2288 78.0382 77.8455L68.9485 74.0824V33.4598H96.5456C97.5527 33.4598 98.372 32.6481 98.372 31.6384C98.372 30.6337 97.5552 29.8145 96.5456 29.8145H37.7087C36.7015 29.8145 35.8848 30.6312 35.8848 31.6384C35.8873 32.6481 36.7015 33.4598 37.7087 33.4598Z" fill="#EDB200"></path><path d="M34.8299 66.5957V79.5285C34.8299 80.5332 35.6442 81.3525 36.6538 81.3525C37.6635 81.3525 38.4752 80.5357 38.4752 79.5285V51.8364H40.8829C41.8901 51.8364 42.7044 51.0196 42.7044 50.0124C42.7044 49.0052 41.8926 48.191 40.8829 48.191H16.1471C16.8762 35.4661 15.9066 20.4763 10.53 6.18043C10.1742 5.2384 9.12451 4.76487 8.17998 5.11563C7.24045 5.4714 6.7644 6.52366 7.11766 7.46318C19.5069 40.3892 7.21783 78.574 7.09006 78.9573C6.77939 79.9119 7.29806 80.9416 8.25261 81.2573C8.44052 81.3174 8.63343 81.3475 8.82384 81.3475C9.59049 81.3475 10.3045 80.8614 10.5526 80.0948C10.7405 79.5286 12.3815 74.4301 13.8697 66.5907H34.8299V66.5957ZM34.8299 51.8364V62.9503H14.5161C15.0698 59.5906 15.5533 55.85 15.8915 51.8364H34.8299Z" fill="#EDB200"></path><path d="M22.6641 89.6149C22.6641 90.6196 23.4783 91.4364 24.488 91.4364H104.027C105.034 91.4364 105.851 90.6221 105.851 89.6149C105.851 88.6078 105.037 87.791 104.027 87.791H24.488C23.4783 87.7935 22.6641 88.6103 22.6641 89.6149Z" fill="#EDB200"></path><path d="M116.775 100.547H49.9958C48.9886 100.547 48.1719 101.361 48.1719 102.371C48.1719 103.375 48.9861 104.192 49.9958 104.192H116.775C117.782 104.192 118.599 103.378 118.599 102.371C118.596 101.361 117.782 100.547 116.775 100.547Z" fill="#EDB200"></path><path d="M73.0463 113.301H13.5505C12.5458 113.301 11.7266 114.118 11.7266 115.125C11.7266 116.132 12.5433 116.949 13.5505 116.949H73.0463C74.0534 116.949 74.8677 116.132 74.8677 115.125C74.8677 114.118 74.0534 113.301 73.0463 113.301Z" fill="#EDB200"></path><path d="M40.9058 25.7179L45.2702 26.8228C46.3425 27.0934 47.4424 27.2312 48.5448 27.2312C49.6472 27.2312 50.7496 27.0934 51.8194 26.8228L56.1837 25.7179C57.1633 25.4699 57.7521 24.4778 57.5041 23.5032C57.2535 22.526 56.2614 21.9323 55.2918 22.1853L50.9224 23.2902C49.3666 23.6835 47.723 23.6835 46.1671 23.2902L41.8027 22.1853C40.8231 21.9373 39.836 22.526 39.5879 23.5032C39.3399 24.4778 39.9287 25.4724 40.9058 25.7179Z" fill="#EDB200"></path><path d="M78.0782 25.7176L82.4426 26.8225C83.5149 27.0931 84.6148 27.2309 85.7171 27.2309C86.8195 27.2309 87.9194 27.0931 88.9917 26.8225L93.3561 25.7176C94.3332 25.4696 94.922 24.4774 94.6764 23.5028C94.4259 22.5232 93.4363 21.9395 92.4592 22.185L88.0948 23.2899C86.5389 23.6832 84.8954 23.6832 83.3395 23.2899L78.9701 22.185C77.998 21.932 77.0084 22.5308 76.7579 23.5028C76.5098 24.4774 77.0985 25.4721 78.0782 25.7176Z" fill="#EDB200"></path></g><defs><clipPath><rect width="132" height="117" fill="white" transform="translate(0.5)"></rect></clipPath></defs></svg>